<?xml version="1.0" encoding="utf-8" standalone="no"?>
<!DOCTYPE svg PUBLIC "-//W3C//DTD SVG 1.1//EN"
  "http://www.w3.org/Graphics/SVG/1.1/DTD/svg11.dtd">
<svg xmlns:xlink="http://www.w3.org/1999/xlink" width="518.4pt" height="345.6pt" viewBox="0 0 518.4 345.6" xmlns="http://www.w3.org/2000/svg" version="1.1">
 <metadata>
  <rdf:RDF xmlns:dc="http://purl.org/dc/elements/1.1/" xmlns:cc="http://creativecommons.org/ns#" xmlns:rdf="http://www.w3.org/1999/02/22-rdf-syntax-ns#">
   <cc:Work>
    <dc:type rdf:resource="http://purl.org/dc/dcmitype/StillImage"/>
    <dc:format>image/svg+xml</dc:format>
    <dc:creator>
     <cc:Agent>
      <dc:title>Matplotlib v3.10.9, https://matplotlib.org/</dc:title>
     </cc:Agent>
    </dc:creator>
   </cc:Work>
  </rdf:RDF>
 </metadata>
 <defs>
  <style type="text/css">*{stroke-linejoin: round; stroke-linecap: butt}</style>
 </defs>
 <g id="figure_1">
  <g id="patch_1">
   <path d="M 0 345.6
L 518.4 345.6
L 518.4 0
L 0 0
z
" style="fill: #ffffff"/>
  </g>
  <g id="axes_1">
   <g id="patch_2">
    <path d="M 69.05 300.672
L 507.6 300.672
L 507.6 25.44
L 69.05 25.44
z
" style="fill: #ffffff"/>
   </g>
   <g id="matplotlib.axis_1">
    <g id="xtick_1">
     <g id="line2d_1">
      <path d="M 88.984091 300.672
L 88.984091 25.44
" clip-path="url(#p2a4e53d04e)" style="fill: none; stroke: #b0b0b0; stroke-opacity: 0.15; stroke-width: 0.8; stroke-linecap: square"/>
     </g>
     <g id="line2d_2">
      <defs>
       <path id="m0e4e4e6c5e" d="M 0 0
L 0 3.5
" style="stroke: #000000; stroke-width: 0.8"/>
      </defs>
      <g>
       <use xlink:href="#m0e4e4e6c5e" x="88.984091" y="300.672" style="stroke: #000000; stroke-width: 0.8"/>
      </g>
     </g>
     <g id="text_1">
      <!-- 30 -->
      <g transform="translate(82.621591 315.270437) scale(0.1 -0.1)">
       <defs>
        <path id="DejaVuSans-33" d="M 2597 2516
Q 3050 2419 3304 2112
Q 3559 1806 3559 1356
Q 3559 666 3084 287
Q 2609 -91 1734 -91
Q 1441 -91 1130 -33
Q 819 25 488 141
L 488 750
Q 750 597 1062 519
Q 1375 441 1716 441
Q 2309 441 2620 675
Q 2931 909 2931 1356
Q 2931 1769 2642 2001
Q 2353 2234 1838 2234
L 1294 2234
L 1294 2753
L 1863 2753
Q 2328 2753 2575 2939
Q 2822 3125 2822 3475
Q 2822 3834 2567 4026
Q 2313 4219 1838 4219
Q 1578 4219 1281 4162
Q 984 4106 628 3988
L 628 4550
Q 988 4650 1302 4700
Q 1616 4750 1894 4750
Q 2613 4750 3031 4423
Q 3450 4097 3450 3541
Q 3450 3153 3228 2886
Q 3006 2619 2597 2516
z
" transform="scale(0.015625)"/>
        <path id="DejaVuSans-30" d="M 2034 4250
Q 1547 4250 1301 3770
Q 1056 3291 1056 2328
Q 1056 1369 1301 889
Q 1547 409 2034 409
Q 2525 409 2770 889
Q 3016 1369 3016 2328
Q 3016 3291 2770 3770
Q 2525 4250 2034 4250
z
M 2034 4750
Q 2819 4750 3233 4129
Q 3647 3509 3647 2328
Q 3647 1150 3233 529
Q 2819 -91 2034 -91
Q 1250 -91 836 529
Q 422 1150 422 2328
Q 422 3509 836 4129
Q 1250 4750 2034 4750
z
" transform="scale(0.015625)"/>
       </defs>
       <use xlink:href="#DejaVuSans-33"/>
       <use xlink:href="#DejaVuSans-30" transform="translate(63.623047 0)"/>
      </g>
     </g>
    </g>
    <g id="xtick_2">
     <g id="line2d_3">
      <path d="M 128.852273 300.672
L 128.852273 25.44
" clip-path="url(#p2a4e53d04e)" style="fill: none; stroke: #b0b0b0; stroke-opacity: 0.15; stroke-width: 0.8; stroke-linecap: square"/>
     </g>
     <g id="line2d_4">
      <g>
       <use xlink:href="#m0e4e4e6c5e" x="128.852273" y="300.672" style="stroke: #000000; stroke-width: 0.8"/>
      </g>
     </g>
     <g id="text_2">
      <!-- 45 -->
      <g transform="translate(122.489773 315.270437) scale(0.1 -0.1)">
       <defs>
        <path id="DejaVuSans-34" d="M 2419 4116
L 825 1625
L 2419 1625
L 2419 4116
z
M 2253 4666
L 3047 4666
L 3047 1625
L 3713 1625
L 3713 1100
L 3047 1100
L 3047 0
L 2419 0
L 2419 1100
L 313 1100
L 313 1709
L 2253 4666
z
" transform="scale(0.015625)"/>
        <path id="DejaVuSans-35" d="M 691 4666
L 3169 4666
L 3169 4134
L 1269 4134
L 1269 2991
Q 1406 3038 1543 3061
Q 1681 3084 1819 3084
Q 2600 3084 3056 2656
Q 3513 2228 3513 1497
Q 3513 744 3044 326
Q 2575 -91 1722 -91
Q 1428 -91 1123 -41
Q 819 9 494 109
L 494 744
Q 775 591 1075 516
Q 1375 441 1709 441
Q 2250 441 2565 725
Q 2881 1009 2881 1497
Q 2881 1984 2565 2268
Q 2250 2553 1709 2553
Q 1456 2553 1204 2497
Q 953 2441 691 2322
L 691 4666
z
" transform="scale(0.015625)"/>
       </defs>
       <use xlink:href="#DejaVuSans-34"/>
       <use xlink:href="#DejaVuSans-35" transform="translate(63.623047 0)"/>
      </g>
     </g>
    </g>
    <g id="xtick_3">
     <g id="line2d_5">
      <path d="M 168.720455 300.672
L 168.720455 25.44
" clip-path="url(#p2a4e53d04e)" style="fill: none; stroke: #b0b0b0; stroke-opacity: 0.15; stroke-width: 0.8; stroke-linecap: square"/>
     </g>
     <g id="line2d_6">
      <g>
       <use xlink:href="#m0e4e4e6c5e" x="168.720455" y="300.672" style="stroke: #000000; stroke-width: 0.8"/>
      </g>
     </g>
     <g id="text_3">
      <!-- 60 -->
      <g transform="translate(162.357955 315.270437) scale(0.1 -0.1)">
       <defs>
        <path id="DejaVuSans-36" d="M 2113 2584
Q 1688 2584 1439 2293
Q 1191 2003 1191 1497
Q 1191 994 1439 701
Q 1688 409 2113 409
Q 2538 409 2786 701
Q 3034 994 3034 1497
Q 3034 2003 2786 2293
Q 2538 2584 2113 2584
z
M 3366 4563
L 3366 3988
Q 3128 4100 2886 4159
Q 2644 4219 2406 4219
Q 1781 4219 1451 3797
Q 1122 3375 1075 2522
Q 1259 2794 1537 2939
Q 1816 3084 2150 3084
Q 2853 3084 3261 2657
Q 3669 2231 3669 1497
Q 3669 778 3244 343
Q 2819 -91 2113 -91
Q 1303 -91 875 529
Q 447 1150 447 2328
Q 447 3434 972 4092
Q 1497 4750 2381 4750
Q 2619 4750 2861 4703
Q 3103 4656 3366 4563
z
" transform="scale(0.015625)"/>
       </defs>
       <use xlink:href="#DejaVuSans-36"/>
       <use xlink:href="#DejaVuSans-30" transform="translate(63.623047 0)"/>
      </g>
     </g>
    </g>
    <g id="xtick_4">
     <g id="line2d_7">
      <path d="M 208.588636 300.672
L 208.588636 25.44
" clip-path="url(#p2a4e53d04e)" style="fill: none; stroke: #b0b0b0; stroke-opacity: 0.15; stroke-width: 0.8; stroke-linecap: square"/>
     </g>
     <g id="line2d_8">
      <g>
       <use xlink:href="#m0e4e4e6c5e" x="208.588636" y="300.672" style="stroke: #000000; stroke-width: 0.8"/>
      </g>
     </g>
     <g id="text_4">
      <!-- 75 -->
      <g transform="translate(202.226136 315.270437) scale(0.1 -0.1)">
       <defs>
        <path id="DejaVuSans-37" d="M 525 4666
L 3525 4666
L 3525 4397
L 1831 0
L 1172 0
L 2766 4134
L 525 4134
L 525 4666
z
" transform="scale(0.015625)"/>
       </defs>
       <use xlink:href="#DejaVuSans-37"/>
       <use xlink:href="#DejaVuSans-35" transform="translate(63.623047 0)"/>
      </g>
     </g>
    </g>
    <g id="xtick_5">
     <g id="line2d_9">
      <path d="M 248.456818 300.672
L 248.456818 25.44
" clip-path="url(#p2a4e53d04e)" style="fill: none; stroke: #b0b0b0; stroke-opacity: 0.15; stroke-width: 0.8; stroke-linecap: square"/>
     </g>
     <g id="line2d_10">
      <g>
       <use xlink:href="#m0e4e4e6c5e" x="248.456818" y="300.672" style="stroke: #000000; stroke-width: 0.8"/>
      </g>
     </g>
     <g id="text_5">
      <!-- 90 -->
      <g transform="translate(242.094318 315.270437) scale(0.1 -0.1)">
       <defs>
        <path id="DejaVuSans-39" d="M 703 97
L 703 672
Q 941 559 1184 500
Q 1428 441 1663 441
Q 2288 441 2617 861
Q 2947 1281 2994 2138
Q 2813 1869 2534 1725
Q 2256 1581 1919 1581
Q 1219 1581 811 2004
Q 403 2428 403 3163
Q 403 3881 828 4315
Q 1253 4750 1959 4750
Q 2769 4750 3195 4129
Q 3622 3509 3622 2328
Q 3622 1225 3098 567
Q 2575 -91 1691 -91
Q 1453 -91 1209 -44
Q 966 3 703 97
z
M 1959 2075
Q 2384 2075 2632 2365
Q 2881 2656 2881 3163
Q 2881 3666 2632 3958
Q 2384 4250 1959 4250
Q 1534 4250 1286 3958
Q 1038 3666 1038 3163
Q 1038 2656 1286 2365
Q 1534 2075 1959 2075
z
" transform="scale(0.015625)"/>
       </defs>
       <use xlink:href="#DejaVuSans-39"/>
       <use xlink:href="#DejaVuSans-30" transform="translate(63.623047 0)"/>
      </g>
     </g>
    </g>
    <g id="xtick_6">
     <g id="line2d_11">
      <path d="M 328.193182 300.672
L 328.193182 25.44
" clip-path="url(#p2a4e53d04e)" style="fill: none; stroke: #b0b0b0; stroke-opacity: 0.15; stroke-width: 0.8; stroke-linecap: square"/>
     </g>
     <g id="line2d_12">
      <g>
       <use xlink:href="#m0e4e4e6c5e" x="328.193182" y="300.672" style="stroke: #000000; stroke-width: 0.8"/>
      </g>
     </g>
     <g id="text_6">
      <!-- 120 -->
      <g transform="translate(318.649432 315.270437) scale(0.1 -0.1)">
       <defs>
        <path id="DejaVuSans-31" d="M 794 531
L 1825 531
L 1825 4091
L 703 3866
L 703 4441
L 1819 4666
L 2450 4666
L 2450 531
L 3481 531
L 3481 0
L 794 0
L 794 531
z
" transform="scale(0.015625)"/>
        <path id="DejaVuSans-32" d="M 1228 531
L 3431 531
L 3431 0
L 469 0
L 469 531
Q 828 903 1448 1529
Q 2069 2156 2228 2338
Q 2531 2678 2651 2914
Q 2772 3150 2772 3378
Q 2772 3750 2511 3984
Q 2250 4219 1831 4219
Q 1534 4219 1204 4116
Q 875 4013 500 3803
L 500 4441
Q 881 4594 1212 4672
Q 1544 4750 1819 4750
Q 2544 4750 2975 4387
Q 3406 4025 3406 3419
Q 3406 3131 3298 2873
Q 3191 2616 2906 2266
Q 2828 2175 2409 1742
Q 1991 1309 1228 531
z
" transform="scale(0.015625)"/>
       </defs>
       <use xlink:href="#DejaVuSans-31"/>
       <use xlink:href="#DejaVuSans-32" transform="translate(63.623047 0)"/>
       <use xlink:href="#DejaVuSans-30" transform="translate(127.246094 0)"/>
      </g>
     </g>
    </g>
    <g id="xtick_7">
     <g id="line2d_13">
      <path d="M 407.929545 300.672
L 407.929545 25.44
" clip-path="url(#p2a4e53d04e)" style="fill: none; stroke: #b0b0b0; stroke-opacity: 0.15; stroke-width: 0.8; stroke-linecap: square"/>
     </g>
     <g id="line2d_14">
      <g>
       <use xlink:href="#m0e4e4e6c5e" x="407.929545" y="300.672" style="stroke: #000000; stroke-width: 0.8"/>
      </g>
     </g>
     <g id="text_7">
      <!-- 150 -->
      <g transform="translate(398.385795 315.270437) scale(0.1 -0.1)">
       <use xlink:href="#DejaVuSans-31"/>
       <use xlink:href="#DejaVuSans-35" transform="translate(63.623047 0)"/>
       <use xlink:href="#DejaVuSans-30" transform="translate(127.246094 0)"/>
      </g>
     </g>
    </g>
    <g id="xtick_8">
     <g id="line2d_15">
      <path d="M 487.665909 300.672
L 487.665909 25.44
" clip-path="url(#p2a4e53d04e)" style="fill: none; stroke: #b0b0b0; stroke-opacity: 0.15; stroke-width: 0.8; stroke-linecap: square"/>
     </g>
     <g id="line2d_16">
      <g>
       <use xlink:href="#m0e4e4e6c5e" x="487.665909" y="300.672" style="stroke: #000000; stroke-width: 0.8"/>
      </g>
     </g>
     <g id="text_8">
      <!-- 180 -->
      <g transform="translate(478.122159 315.270437) scale(0.1 -0.1)">
       <defs>
        <path id="DejaVuSans-38" d="M 2034 2216
Q 1584 2216 1326 1975
Q 1069 1734 1069 1313
Q 1069 891 1326 650
Q 1584 409 2034 409
Q 2484 409 2743 651
Q 3003 894 3003 1313
Q 3003 1734 2745 1975
Q 2488 2216 2034 2216
z
M 1403 2484
Q 997 2584 770 2862
Q 544 3141 544 3541
Q 544 4100 942 4425
Q 1341 4750 2034 4750
Q 2731 4750 3128 4425
Q 3525 4100 3525 3541
Q 3525 3141 3298 2862
Q 3072 2584 2669 2484
Q 3125 2378 3379 2068
Q 3634 1759 3634 1313
Q 3634 634 3220 271
Q 2806 -91 2034 -91
Q 1263 -91 848 271
Q 434 634 434 1313
Q 434 1759 690 2068
Q 947 2378 1403 2484
z
M 1172 3481
Q 1172 3119 1398 2916
Q 1625 2713 2034 2713
Q 2441 2713 2670 2916
Q 2900 3119 2900 3481
Q 2900 3844 2670 4047
Q 2441 4250 2034 4250
Q 1625 4250 1398 4047
Q 1172 3844 1172 3481
z
" transform="scale(0.015625)"/>
       </defs>
       <use xlink:href="#DejaVuSans-31"/>
       <use xlink:href="#DejaVuSans-38" transform="translate(63.623047 0)"/>
       <use xlink:href="#DejaVuSans-30" transform="translate(127.246094 0)"/>
      </g>
     </g>
    </g>
    <g id="text_9">
     <!-- random-bounded dimension n -->
     <g transform="translate(212.885156 328.948562) scale(0.1 -0.1)">
      <defs>
       <path id="DejaVuSans-72" d="M 2631 2963
Q 2534 3019 2420 3045
Q 2306 3072 2169 3072
Q 1681 3072 1420 2755
Q 1159 2438 1159 1844
L 1159 0
L 581 0
L 581 3500
L 1159 3500
L 1159 2956
Q 1341 3275 1631 3429
Q 1922 3584 2338 3584
Q 2397 3584 2469 3576
Q 2541 3569 2628 3553
L 2631 2963
z
" transform="scale(0.015625)"/>
       <path id="DejaVuSans-61" d="M 2194 1759
Q 1497 1759 1228 1600
Q 959 1441 959 1056
Q 959 750 1161 570
Q 1363 391 1709 391
Q 2188 391 2477 730
Q 2766 1069 2766 1631
L 2766 1759
L 2194 1759
z
M 3341 1997
L 3341 0
L 2766 0
L 2766 531
Q 2569 213 2275 61
Q 1981 -91 1556 -91
Q 1019 -91 701 211
Q 384 513 384 1019
Q 384 1609 779 1909
Q 1175 2209 1959 2209
L 2766 2209
L 2766 2266
Q 2766 2663 2505 2880
Q 2244 3097 1772 3097
Q 1472 3097 1187 3025
Q 903 2953 641 2809
L 641 3341
Q 956 3463 1253 3523
Q 1550 3584 1831 3584
Q 2591 3584 2966 3190
Q 3341 2797 3341 1997
z
" transform="scale(0.015625)"/>
       <path id="DejaVuSans-6e" d="M 3513 2113
L 3513 0
L 2938 0
L 2938 2094
Q 2938 2591 2744 2837
Q 2550 3084 2163 3084
Q 1697 3084 1428 2787
Q 1159 2491 1159 1978
L 1159 0
L 581 0
L 581 3500
L 1159 3500
L 1159 2956
Q 1366 3272 1645 3428
Q 1925 3584 2291 3584
Q 2894 3584 3203 3211
Q 3513 2838 3513 2113
z
" transform="scale(0.015625)"/>
       <path id="DejaVuSans-64" d="M 2906 2969
L 2906 4863
L 3481 4863
L 3481 0
L 2906 0
L 2906 525
Q 2725 213 2448 61
Q 2172 -91 1784 -91
Q 1150 -91 751 415
Q 353 922 353 1747
Q 353 2572 751 3078
Q 1150 3584 1784 3584
Q 2172 3584 2448 3432
Q 2725 3281 2906 2969
z
M 947 1747
Q 947 1113 1208 752
Q 1469 391 1925 391
Q 2381 391 2643 752
Q 2906 1113 2906 1747
Q 2906 2381 2643 2742
Q 2381 3103 1925 3103
Q 1469 3103 1208 2742
Q 947 2381 947 1747
z
" transform="scale(0.015625)"/>
       <path id="DejaVuSans-6f" d="M 1959 3097
Q 1497 3097 1228 2736
Q 959 2375 959 1747
Q 959 1119 1226 758
Q 1494 397 1959 397
Q 2419 397 2687 759
Q 2956 1122 2956 1747
Q 2956 2369 2687 2733
Q 2419 3097 1959 3097
z
M 1959 3584
Q 2709 3584 3137 3096
Q 3566 2609 3566 1747
Q 3566 888 3137 398
Q 2709 -91 1959 -91
Q 1206 -91 779 398
Q 353 888 353 1747
Q 353 2609 779 3096
Q 1206 3584 1959 3584
z
" transform="scale(0.015625)"/>
       <path id="DejaVuSans-6d" d="M 3328 2828
Q 3544 3216 3844 3400
Q 4144 3584 4550 3584
Q 5097 3584 5394 3201
Q 5691 2819 5691 2113
L 5691 0
L 5113 0
L 5113 2094
Q 5113 2597 4934 2840
Q 4756 3084 4391 3084
Q 3944 3084 3684 2787
Q 3425 2491 3425 1978
L 3425 0
L 2847 0
L 2847 2094
Q 2847 2600 2669 2842
Q 2491 3084 2119 3084
Q 1678 3084 1418 2786
Q 1159 2488 1159 1978
L 1159 0
L 581 0
L 581 3500
L 1159 3500
L 1159 2956
Q 1356 3278 1631 3431
Q 1906 3584 2284 3584
Q 2666 3584 2933 3390
Q 3200 3197 3328 2828
z
" transform="scale(0.015625)"/>
       <path id="DejaVuSans-2d" d="M 313 2009
L 1997 2009
L 1997 1497
L 313 1497
L 313 2009
z
" transform="scale(0.015625)"/>
       <path id="DejaVuSans-62" d="M 3116 1747
Q 3116 2381 2855 2742
Q 2594 3103 2138 3103
Q 1681 3103 1420 2742
Q 1159 2381 1159 1747
Q 1159 1113 1420 752
Q 1681 391 2138 391
Q 2594 391 2855 752
Q 3116 1113 3116 1747
z
M 1159 2969
Q 1341 3281 1617 3432
Q 1894 3584 2278 3584
Q 2916 3584 3314 3078
Q 3713 2572 3713 1747
Q 3713 922 3314 415
Q 2916 -91 2278 -91
Q 1894 -91 1617 61
Q 1341 213 1159 525
L 1159 0
L 581 0
L 581 4863
L 1159 4863
L 1159 2969
z
" transform="scale(0.015625)"/>
       <path id="DejaVuSans-75" d="M 544 1381
L 544 3500
L 1119 3500
L 1119 1403
Q 1119 906 1312 657
Q 1506 409 1894 409
Q 2359 409 2629 706
Q 2900 1003 2900 1516
L 2900 3500
L 3475 3500
L 3475 0
L 2900 0
L 2900 538
Q 2691 219 2414 64
Q 2138 -91 1772 -91
Q 1169 -91 856 284
Q 544 659 544 1381
z
M 1991 3584
L 1991 3584
z
" transform="scale(0.015625)"/>
       <path id="DejaVuSans-65" d="M 3597 1894
L 3597 1613
L 953 1613
Q 991 1019 1311 708
Q 1631 397 2203 397
Q 2534 397 2845 478
Q 3156 559 3463 722
L 3463 178
Q 3153 47 2828 -22
Q 2503 -91 2169 -91
Q 1331 -91 842 396
Q 353 884 353 1716
Q 353 2575 817 3079
Q 1281 3584 2069 3584
Q 2775 3584 3186 3129
Q 3597 2675 3597 1894
z
M 3022 2063
Q 3016 2534 2758 2815
Q 2500 3097 2075 3097
Q 1594 3097 1305 2825
Q 1016 2553 972 2059
L 3022 2063
z
" transform="scale(0.015625)"/>
       <path id="DejaVuSans-20" transform="scale(0.015625)"/>
       <path id="DejaVuSans-69" d="M 603 3500
L 1178 3500
L 1178 0
L 603 0
L 603 3500
z
M 603 4863
L 1178 4863
L 1178 4134
L 603 4134
L 603 4863
z
" transform="scale(0.015625)"/>
       <path id="DejaVuSans-73" d="M 2834 3397
L 2834 2853
Q 2591 2978 2328 3040
Q 2066 3103 1784 3103
Q 1356 3103 1142 2972
Q 928 2841 928 2578
Q 928 2378 1081 2264
Q 1234 2150 1697 2047
L 1894 2003
Q 2506 1872 2764 1633
Q 3022 1394 3022 966
Q 3022 478 2636 193
Q 2250 -91 1575 -91
Q 1294 -91 989 -36
Q 684 19 347 128
L 347 722
Q 666 556 975 473
Q 1284 391 1588 391
Q 1994 391 2212 530
Q 2431 669 2431 922
Q 2431 1156 2273 1281
Q 2116 1406 1581 1522
L 1381 1569
Q 847 1681 609 1914
Q 372 2147 372 2553
Q 372 3047 722 3315
Q 1072 3584 1716 3584
Q 2034 3584 2315 3537
Q 2597 3491 2834 3397
z
" transform="scale(0.015625)"/>
      </defs>
      <use xlink:href="#DejaVuSans-72"/>
      <use xlink:href="#DejaVuSans-61" transform="translate(41.113281 0)"/>
      <use xlink:href="#DejaVuSans-6e" transform="translate(102.392578 0)"/>
      <use xlink:href="#DejaVuSans-64" transform="translate(165.771484 0)"/>
      <use xlink:href="#DejaVuSans-6f" transform="translate(229.248047 0)"/>
      <use xlink:href="#DejaVuSans-6d" transform="translate(290.429688 0)"/>
      <use xlink:href="#DejaVuSans-2d" transform="translate(387.841797 0)"/>
      <use xlink:href="#DejaVuSans-62" transform="translate(423.925781 0)"/>
      <use xlink:href="#DejaVuSans-6f" transform="translate(487.402344 0)"/>
      <use xlink:href="#DejaVuSans-75" transform="translate(548.583984 0)"/>
      <use xlink:href="#DejaVuSans-6e" transform="translate(611.962891 0)"/>
      <use xlink:href="#DejaVuSans-64" transform="translate(675.341797 0)"/>
      <use xlink:href="#DejaVuSans-65" transform="translate(738.818359 0)"/>
      <use xlink:href="#DejaVuSans-64" transform="translate(800.341797 0)"/>
      <use xlink:href="#DejaVuSans-20" transform="translate(863.818359 0)"/>
      <use xlink:href="#DejaVuSans-64" transform="translate(895.605469 0)"/>
      <use xlink:href="#DejaVuSans-69" transform="translate(959.082031 0)"/>
      <use xlink:href="#DejaVuSans-6d" transform="translate(986.865234 0)"/>
      <use xlink:href="#DejaVuSans-65" transform="translate(1084.277344 0)"/>
      <use xlink:href="#DejaVuSans-6e" transform="translate(1145.800781 0)"/>
      <use xlink:href="#DejaVuSans-73" transform="translate(1209.179688 0)"/>
      <use xlink:href="#DejaVuSans-69" transform="translate(1261.279297 0)"/>
      <use xlink:href="#DejaVuSans-6f" transform="translate(1289.0625 0)"/>
      <use xlink:href="#DejaVuSans-6e" transform="translate(1350.244141 0)"/>
      <use xlink:href="#DejaVuSans-20" transform="translate(1413.623047 0)"/>
      <use xlink:href="#DejaVuSans-6e" transform="translate(1445.410156 0)"/>
     </g>
    </g>
   </g>
   <g id="matplotlib.axis_2">
    <g id="ytick_1">
     <g id="line2d_17">
      <path d="M 69.05 299.11246
L 507.6 299.11246
" clip-path="url(#p2a4e53d04e)" style="fill: none; stroke: #b0b0b0; stroke-opacity: 0.25; stroke-width: 0.8; stroke-linecap: square"/>
     </g>
     <g id="line2d_18">
      <defs>
       <path id="m2fc5dfffec" d="M 0 0
L -3.5 0
" style="stroke: #000000; stroke-width: 0.8"/>
      </defs>
      <g>
       <use xlink:href="#m2fc5dfffec" x="69.05" y="299.11246" style="stroke: #000000; stroke-width: 0.8"/>
      </g>
     </g>
     <g id="text_10">
      <!-- 1 ms -->
      <g transform="translate(37.559375 302.911679) scale(0.1 -0.1)">
       <use xlink:href="#DejaVuSans-31"/>
       <use xlink:href="#DejaVuSans-20" transform="translate(63.623047 0)"/>
       <use xlink:href="#DejaVuSans-6d" transform="translate(95.410156 0)"/>
       <use xlink:href="#DejaVuSans-73" transform="translate(192.822266 0)"/>
      </g>
     </g>
    </g>
    <g id="ytick_2">
     <g id="line2d_19">
      <path d="M 69.05 231.93341
L 507.6 231.93341
" clip-path="url(#p2a4e53d04e)" style="fill: none; stroke: #b0b0b0; stroke-opacity: 0.25; stroke-width: 0.8; stroke-linecap: square"/>
     </g>
     <g id="line2d_20">
      <g>
       <use xlink:href="#m2fc5dfffec" x="69.05" y="231.93341" style="stroke: #000000; stroke-width: 0.8"/>
      </g>
     </g>
     <g id="text_11">
      <!-- 10 ms -->
      <g transform="translate(31.196875 235.732629) scale(0.1 -0.1)">
       <use xlink:href="#DejaVuSans-31"/>
       <use xlink:href="#DejaVuSans-30" transform="translate(63.623047 0)"/>
       <use xlink:href="#DejaVuSans-20" transform="translate(127.246094 0)"/>
       <use xlink:href="#DejaVuSans-6d" transform="translate(159.033203 0)"/>
       <use xlink:href="#DejaVuSans-73" transform="translate(256.445312 0)"/>
      </g>
     </g>
    </g>
    <g id="ytick_3">
     <g id="line2d_21">
      <path d="M 69.05 164.75436
L 507.6 164.75436
" clip-path="url(#p2a4e53d04e)" style="fill: none; stroke: #b0b0b0; stroke-opacity: 0.25; stroke-width: 0.8; stroke-linecap: square"/>
     </g>
     <g id="line2d_22">
      <g>
       <use xlink:href="#m2fc5dfffec" x="69.05" y="164.75436" style="stroke: #000000; stroke-width: 0.8"/>
      </g>
     </g>
     <g id="text_12">
      <!-- 100 ms -->
      <g transform="translate(24.834375 168.553578) scale(0.1 -0.1)">
       <use xlink:href="#DejaVuSans-31"/>
       <use xlink:href="#DejaVuSans-30" transform="translate(63.623047 0)"/>
       <use xlink:href="#DejaVuSans-30" transform="translate(127.246094 0)"/>
       <use xlink:href="#DejaVuSans-20" transform="translate(190.869141 0)"/>
       <use xlink:href="#DejaVuSans-6d" transform="translate(222.65625 0)"/>
       <use xlink:href="#DejaVuSans-73" transform="translate(320.068359 0)"/>
      </g>
     </g>
    </g>
    <g id="ytick_4">
     <g id="line2d_23">
      <path d="M 69.05 97.575309
L 507.6 97.575309
" clip-path="url(#p2a4e53d04e)" style="fill: none; stroke: #b0b0b0; stroke-opacity: 0.25; stroke-width: 0.8; stroke-linecap: square"/>
     </g>
     <g id="line2d_24">
      <g>
       <use xlink:href="#m2fc5dfffec" x="69.05" y="97.575309" style="stroke: #000000; stroke-width: 0.8"/>
      </g>
     </g>
     <g id="text_13">
      <!-- 1 s -->
      <g transform="translate(47.3 101.374528) scale(0.1 -0.1)">
       <use xlink:href="#DejaVuSans-31"/>
       <use xlink:href="#DejaVuSans-20" transform="translate(63.623047 0)"/>
       <use xlink:href="#DejaVuSans-73" transform="translate(95.410156 0)"/>
      </g>
     </g>
    </g>
    <g id="ytick_5">
     <g id="line2d_25">
      <path d="M 69.05 30.396259
L 507.6 30.396259
" clip-path="url(#p2a4e53d04e)" style="fill: none; stroke: #b0b0b0; stroke-opacity: 0.25; stroke-width: 0.8; stroke-linecap: square"/>
     </g>
     <g id="line2d_26">
      <g>
       <use xlink:href="#m2fc5dfffec" x="69.05" y="30.396259" style="stroke: #000000; stroke-width: 0.8"/>
      </g>
     </g>
     <g id="text_14">
      <!-- 10 s -->
      <g transform="translate(40.9375 34.195478) scale(0.1 -0.1)">
       <use xlink:href="#DejaVuSans-31"/>
       <use xlink:href="#DejaVuSans-30" transform="translate(63.623047 0)"/>
       <use xlink:href="#DejaVuSans-20" transform="translate(127.246094 0)"/>
       <use xlink:href="#DejaVuSans-73" transform="translate(159.033203 0)"/>
      </g>
     </g>
    </g>
    <g id="ytick_6">
     <g id="line2d_27">
      <path d="M 69.05 278.889551
L 507.6 278.889551
" clip-path="url(#p2a4e53d04e)" style="fill: none; stroke: #b0b0b0; stroke-opacity: 0.25; stroke-width: 0.8; stroke-linecap: square"/>
     </g>
     <g id="line2d_28">
      <defs>
       <path id="m9fe0730aad" d="M 0 0
L -2 0
" style="stroke: #000000; stroke-width: 0.6"/>
      </defs>
      <g>
       <use xlink:href="#m9fe0730aad" x="69.05" y="278.889551" style="stroke: #000000; stroke-width: 0.6"/>
      </g>
     </g>
    </g>
    <g id="ytick_7">
     <g id="line2d_29">
      <path d="M 69.05 267.059907
L 507.6 267.059907
" clip-path="url(#p2a4e53d04e)" style="fill: none; stroke: #b0b0b0; stroke-opacity: 0.25; stroke-width: 0.8; stroke-linecap: square"/>
     </g>
     <g id="line2d_30">
      <g>
       <use xlink:href="#m9fe0730aad" x="69.05" y="267.059907" style="stroke: #000000; stroke-width: 0.6"/>
      </g>
     </g>
    </g>
    <g id="ytick_8">
     <g id="line2d_31">
      <path d="M 69.05 258.666642
L 507.6 258.666642
" clip-path="url(#p2a4e53d04e)" style="fill: none; stroke: #b0b0b0; stroke-opacity: 0.25; stroke-width: 0.8; stroke-linecap: square"/>
     </g>
     <g id="line2d_32">
      <g>
       <use xlink:href="#m9fe0730aad" x="69.05" y="258.666642" style="stroke: #000000; stroke-width: 0.6"/>
      </g>
     </g>
    </g>
    <g id="ytick_9">
     <g id="line2d_33">
      <path d="M 69.05 252.156319
L 507.6 252.156319
" clip-path="url(#p2a4e53d04e)" style="fill: none; stroke: #b0b0b0; stroke-opacity: 0.25; stroke-width: 0.8; stroke-linecap: square"/>
     </g>
     <g id="line2d_34">
      <g>
       <use xlink:href="#m9fe0730aad" x="69.05" y="252.156319" style="stroke: #000000; stroke-width: 0.6"/>
      </g>
     </g>
    </g>
    <g id="ytick_10">
     <g id="line2d_35">
      <path d="M 69.05 246.836998
L 507.6 246.836998
" clip-path="url(#p2a4e53d04e)" style="fill: none; stroke: #b0b0b0; stroke-opacity: 0.25; stroke-width: 0.8; stroke-linecap: square"/>
     </g>
     <g id="line2d_36">
      <g>
       <use xlink:href="#m9fe0730aad" x="69.05" y="246.836998" style="stroke: #000000; stroke-width: 0.6"/>
      </g>
     </g>
    </g>
    <g id="ytick_11">
     <g id="line2d_37">
      <path d="M 69.05 242.339576
L 507.6 242.339576
" clip-path="url(#p2a4e53d04e)" style="fill: none; stroke: #b0b0b0; stroke-opacity: 0.25; stroke-width: 0.8; stroke-linecap: square"/>
     </g>
     <g id="line2d_38">
      <g>
       <use xlink:href="#m9fe0730aad" x="69.05" y="242.339576" style="stroke: #000000; stroke-width: 0.6"/>
      </g>
     </g>
    </g>
    <g id="ytick_12">
     <g id="line2d_39">
      <path d="M 69.05 238.443732
L 507.6 238.443732
" clip-path="url(#p2a4e53d04e)" style="fill: none; stroke: #b0b0b0; stroke-opacity: 0.25; stroke-width: 0.8; stroke-linecap: square"/>
     </g>
     <g id="line2d_40">
      <g>
       <use xlink:href="#m9fe0730aad" x="69.05" y="238.443732" style="stroke: #000000; stroke-width: 0.6"/>
      </g>
     </g>
    </g>
    <g id="ytick_13">
     <g id="line2d_41">
      <path d="M 69.05 235.007355
L 507.6 235.007355
" clip-path="url(#p2a4e53d04e)" style="fill: none; stroke: #b0b0b0; stroke-opacity: 0.25; stroke-width: 0.8; stroke-linecap: square"/>
     </g>
     <g id="line2d_42">
      <g>
       <use xlink:href="#m9fe0730aad" x="69.05" y="235.007355" style="stroke: #000000; stroke-width: 0.6"/>
      </g>
     </g>
    </g>
    <g id="ytick_14">
     <g id="line2d_43">
      <path d="M 69.05 211.710501
L 507.6 211.710501
" clip-path="url(#p2a4e53d04e)" style="fill: none; stroke: #b0b0b0; stroke-opacity: 0.25; stroke-width: 0.8; stroke-linecap: square"/>
     </g>
     <g id="line2d_44">
      <g>
       <use xlink:href="#m9fe0730aad" x="69.05" y="211.710501" style="stroke: #000000; stroke-width: 0.6"/>
      </g>
     </g>
    </g>
    <g id="ytick_15">
     <g id="line2d_45">
      <path d="M 69.05 199.880857
L 507.6 199.880857
" clip-path="url(#p2a4e53d04e)" style="fill: none; stroke: #b0b0b0; stroke-opacity: 0.25; stroke-width: 0.8; stroke-linecap: square"/>
     </g>
     <g id="line2d_46">
      <g>
       <use xlink:href="#m9fe0730aad" x="69.05" y="199.880857" style="stroke: #000000; stroke-width: 0.6"/>
      </g>
     </g>
    </g>
    <g id="ytick_16">
     <g id="line2d_47">
      <path d="M 69.05 191.487591
L 507.6 191.487591
" clip-path="url(#p2a4e53d04e)" style="fill: none; stroke: #b0b0b0; stroke-opacity: 0.25; stroke-width: 0.8; stroke-linecap: square"/>
     </g>
     <g id="line2d_48">
      <g>
       <use xlink:href="#m9fe0730aad" x="69.05" y="191.487591" style="stroke: #000000; stroke-width: 0.6"/>
      </g>
     </g>
    </g>
    <g id="ytick_17">
     <g id="line2d_49">
      <path d="M 69.05 184.977269
L 507.6 184.977269
" clip-path="url(#p2a4e53d04e)" style="fill: none; stroke: #b0b0b0; stroke-opacity: 0.25; stroke-width: 0.8; stroke-linecap: square"/>
     </g>
     <g id="line2d_50">
      <g>
       <use xlink:href="#m9fe0730aad" x="69.05" y="184.977269" style="stroke: #000000; stroke-width: 0.6"/>
      </g>
     </g>
    </g>
    <g id="ytick_18">
     <g id="line2d_51">
      <path d="M 69.05 179.657948
L 507.6 179.657948
" clip-path="url(#p2a4e53d04e)" style="fill: none; stroke: #b0b0b0; stroke-opacity: 0.25; stroke-width: 0.8; stroke-linecap: square"/>
     </g>
     <g id="line2d_52">
      <g>
       <use xlink:href="#m9fe0730aad" x="69.05" y="179.657948" style="stroke: #000000; stroke-width: 0.6"/>
      </g>
     </g>
    </g>
    <g id="ytick_19">
     <g id="line2d_53">
      <path d="M 69.05 175.160526
L 507.6 175.160526
" clip-path="url(#p2a4e53d04e)" style="fill: none; stroke: #b0b0b0; stroke-opacity: 0.25; stroke-width: 0.8; stroke-linecap: square"/>
     </g>
     <g id="line2d_54">
      <g>
       <use xlink:href="#m9fe0730aad" x="69.05" y="175.160526" style="stroke: #000000; stroke-width: 0.6"/>
      </g>
     </g>
    </g>
    <g id="ytick_20">
     <g id="line2d_55">
      <path d="M 69.05 171.264682
L 507.6 171.264682
" clip-path="url(#p2a4e53d04e)" style="fill: none; stroke: #b0b0b0; stroke-opacity: 0.25; stroke-width: 0.8; stroke-linecap: square"/>
     </g>
     <g id="line2d_56">
      <g>
       <use xlink:href="#m9fe0730aad" x="69.05" y="171.264682" style="stroke: #000000; stroke-width: 0.6"/>
      </g>
     </g>
    </g>
    <g id="ytick_21">
     <g id="line2d_57">
      <path d="M 69.05 167.828304
L 507.6 167.828304
" clip-path="url(#p2a4e53d04e)" style="fill: none; stroke: #b0b0b0; stroke-opacity: 0.25; stroke-width: 0.8; stroke-linecap: square"/>
     </g>
     <g id="line2d_58">
      <g>
       <use xlink:href="#m9fe0730aad" x="69.05" y="167.828304" style="stroke: #000000; stroke-width: 0.6"/>
      </g>
     </g>
    </g>
    <g id="ytick_22">
     <g id="line2d_59">
      <path d="M 69.05 144.53145
L 507.6 144.53145
" clip-path="url(#p2a4e53d04e)" style="fill: none; stroke: #b0b0b0; stroke-opacity: 0.25; stroke-width: 0.8; stroke-linecap: square"/>
     </g>
     <g id="line2d_60">
      <g>
       <use xlink:href="#m9fe0730aad" x="69.05" y="144.53145" style="stroke: #000000; stroke-width: 0.6"/>
      </g>
     </g>
    </g>
    <g id="ytick_23">
     <g id="line2d_61">
      <path d="M 69.05 132.701807
L 507.6 132.701807
" clip-path="url(#p2a4e53d04e)" style="fill: none; stroke: #b0b0b0; stroke-opacity: 0.25; stroke-width: 0.8; stroke-linecap: square"/>
     </g>
     <g id="line2d_62">
      <g>
       <use xlink:href="#m9fe0730aad" x="69.05" y="132.701807" style="stroke: #000000; stroke-width: 0.6"/>
      </g>
     </g>
    </g>
    <g id="ytick_24">
     <g id="line2d_63">
      <path d="M 69.05 124.308541
L 507.6 124.308541
" clip-path="url(#p2a4e53d04e)" style="fill: none; stroke: #b0b0b0; stroke-opacity: 0.25; stroke-width: 0.8; stroke-linecap: square"/>
     </g>
     <g id="line2d_64">
      <g>
       <use xlink:href="#m9fe0730aad" x="69.05" y="124.308541" style="stroke: #000000; stroke-width: 0.6"/>
      </g>
     </g>
    </g>
    <g id="ytick_25">
     <g id="line2d_65">
      <path d="M 69.05 117.798219
L 507.6 117.798219
" clip-path="url(#p2a4e53d04e)" style="fill: none; stroke: #b0b0b0; stroke-opacity: 0.25; stroke-width: 0.8; stroke-linecap: square"/>
     </g>
     <g id="line2d_66">
      <g>
       <use xlink:href="#m9fe0730aad" x="69.05" y="117.798219" style="stroke: #000000; stroke-width: 0.6"/>
      </g>
     </g>
    </g>
    <g id="ytick_26">
     <g id="line2d_67">
      <path d="M 69.05 112.478898
L 507.6 112.478898
" clip-path="url(#p2a4e53d04e)" style="fill: none; stroke: #b0b0b0; stroke-opacity: 0.25; stroke-width: 0.8; stroke-linecap: square"/>
     </g>
     <g id="line2d_68">
      <g>
       <use xlink:href="#m9fe0730aad" x="69.05" y="112.478898" style="stroke: #000000; stroke-width: 0.6"/>
      </g>
     </g>
    </g>
    <g id="ytick_27">
     <g id="line2d_69">
      <path d="M 69.05 107.981476
L 507.6 107.981476
" clip-path="url(#p2a4e53d04e)" style="fill: none; stroke: #b0b0b0; stroke-opacity: 0.25; stroke-width: 0.8; stroke-linecap: square"/>
     </g>
     <g id="line2d_70">
      <g>
       <use xlink:href="#m9fe0730aad" x="69.05" y="107.981476" style="stroke: #000000; stroke-width: 0.6"/>
      </g>
     </g>
    </g>
    <g id="ytick_28">
     <g id="line2d_71">
      <path d="M 69.05 104.085632
L 507.6 104.085632
" clip-path="url(#p2a4e53d04e)" style="fill: none; stroke: #b0b0b0; stroke-opacity: 0.25; stroke-width: 0.8; stroke-linecap: square"/>
     </g>
     <g id="line2d_72">
      <g>
       <use xlink:href="#m9fe0730aad" x="69.05" y="104.085632" style="stroke: #000000; stroke-width: 0.6"/>
      </g>
     </g>
    </g>
    <g id="ytick_29">
     <g id="line2d_73">
      <path d="M 69.05 100.649254
L 507.6 100.649254
" clip-path="url(#p2a4e53d04e)" style="fill: none; stroke: #b0b0b0; stroke-opacity: 0.25; stroke-width: 0.8; stroke-linecap: square"/>
     </g>
     <g id="line2d_74">
      <g>
       <use xlink:href="#m9fe0730aad" x="69.05" y="100.649254" style="stroke: #000000; stroke-width: 0.6"/>
      </g>
     </g>
    </g>
    <g id="ytick_30">
     <g id="line2d_75">
      <path d="M 69.05 77.3524
L 507.6 77.3524
" clip-path="url(#p2a4e53d04e)" style="fill: none; stroke: #b0b0b0; stroke-opacity: 0.25; stroke-width: 0.8; stroke-linecap: square"/>
     </g>
     <g id="line2d_76">
      <g>
       <use xlink:href="#m9fe0730aad" x="69.05" y="77.3524" style="stroke: #000000; stroke-width: 0.6"/>
      </g>
     </g>
    </g>
    <g id="ytick_31">
     <g id="line2d_77">
      <path d="M 69.05 65.522757
L 507.6 65.522757
" clip-path="url(#p2a4e53d04e)" style="fill: none; stroke: #b0b0b0; stroke-opacity: 0.25; stroke-width: 0.8; stroke-linecap: square"/>
     </g>
     <g id="line2d_78">
      <g>
       <use xlink:href="#m9fe0730aad" x="69.05" y="65.522757" style="stroke: #000000; stroke-width: 0.6"/>
      </g>
     </g>
    </g>
    <g id="ytick_32">
     <g id="line2d_79">
      <path d="M 69.05 57.129491
L 507.6 57.129491
" clip-path="url(#p2a4e53d04e)" style="fill: none; stroke: #b0b0b0; stroke-opacity: 0.25; stroke-width: 0.8; stroke-linecap: square"/>
     </g>
     <g id="line2d_80">
      <g>
       <use xlink:href="#m9fe0730aad" x="69.05" y="57.129491" style="stroke: #000000; stroke-width: 0.6"/>
      </g>
     </g>
    </g>
    <g id="ytick_33">
     <g id="line2d_81">
      <path d="M 69.05 50.619168
L 507.6 50.619168
" clip-path="url(#p2a4e53d04e)" style="fill: none; stroke: #b0b0b0; stroke-opacity: 0.25; stroke-width: 0.8; stroke-linecap: square"/>
     </g>
     <g id="line2d_82">
      <g>
       <use xlink:href="#m9fe0730aad" x="69.05" y="50.619168" style="stroke: #000000; stroke-width: 0.6"/>
      </g>
     </g>
    </g>
    <g id="ytick_34">
     <g id="line2d_83">
      <path d="M 69.05 45.299847
L 507.6 45.299847
" clip-path="url(#p2a4e53d04e)" style="fill: none; stroke: #b0b0b0; stroke-opacity: 0.25; stroke-width: 0.8; stroke-linecap: square"/>
     </g>
     <g id="line2d_84">
      <g>
       <use xlink:href="#m9fe0730aad" x="69.05" y="45.299847" style="stroke: #000000; stroke-width: 0.6"/>
      </g>
     </g>
    </g>
    <g id="ytick_35">
     <g id="line2d_85">
      <path d="M 69.05 40.802426
L 507.6 40.802426
" clip-path="url(#p2a4e53d04e)" style="fill: none; stroke: #b0b0b0; stroke-opacity: 0.25; stroke-width: 0.8; stroke-linecap: square"/>
     </g>
     <g id="line2d_86">
      <g>
       <use xlink:href="#m9fe0730aad" x="69.05" y="40.802426" style="stroke: #000000; stroke-width: 0.6"/>
      </g>
     </g>
    </g>
    <g id="ytick_36">
     <g id="line2d_87">
      <path d="M 69.05 36.906582
L 507.6 36.906582
" clip-path="url(#p2a4e53d04e)" style="fill: none; stroke: #b0b0b0; stroke-opacity: 0.25; stroke-width: 0.8; stroke-linecap: square"/>
     </g>
     <g id="line2d_88">
      <g>
       <use xlink:href="#m9fe0730aad" x="69.05" y="36.906582" style="stroke: #000000; stroke-width: 0.6"/>
      </g>
     </g>
    </g>
    <g id="ytick_37">
     <g id="line2d_89">
      <path d="M 69.05 33.470204
L 507.6 33.470204
" clip-path="url(#p2a4e53d04e)" style="fill: none; stroke: #b0b0b0; stroke-opacity: 0.25; stroke-width: 0.8; stroke-linecap: square"/>
     </g>
     <g id="line2d_90">
      <g>
       <use xlink:href="#m9fe0730aad" x="69.05" y="33.470204" style="stroke: #000000; stroke-width: 0.6"/>
      </g>
     </g>
    </g>
    <g id="text_15">
     <!-- median wall time per call -->
     <g transform="translate(18.754688 226.280219) rotate(-90) scale(0.1 -0.1)">
      <defs>
       <path id="DejaVuSans-77" d="M 269 3500
L 844 3500
L 1563 769
L 2278 3500
L 2956 3500
L 3675 769
L 4391 3500
L 4966 3500
L 4050 0
L 3372 0
L 2619 2869
L 1863 0
L 1184 0
L 269 3500
z
" transform="scale(0.015625)"/>
       <path id="DejaVuSans-6c" d="M 603 4863
L 1178 4863
L 1178 0
L 603 0
L 603 4863
z
" transform="scale(0.015625)"/>
       <path id="DejaVuSans-74" d="M 1172 4494
L 1172 3500
L 2356 3500
L 2356 3053
L 1172 3053
L 1172 1153
Q 1172 725 1289 603
Q 1406 481 1766 481
L 2356 481
L 2356 0
L 1766 0
Q 1100 0 847 248
Q 594 497 594 1153
L 594 3053
L 172 3053
L 172 3500
L 594 3500
L 594 4494
L 1172 4494
z
" transform="scale(0.015625)"/>
       <path id="DejaVuSans-70" d="M 1159 525
L 1159 -1331
L 581 -1331
L 581 3500
L 1159 3500
L 1159 2969
Q 1341 3281 1617 3432
Q 1894 3584 2278 3584
Q 2916 3584 3314 3078
Q 3713 2572 3713 1747
Q 3713 922 3314 415
Q 2916 -91 2278 -91
Q 1894 -91 1617 61
Q 1341 213 1159 525
z
M 3116 1747
Q 3116 2381 2855 2742
Q 2594 3103 2138 3103
Q 1681 3103 1420 2742
Q 1159 2381 1159 1747
Q 1159 1113 1420 752
Q 1681 391 2138 391
Q 2594 391 2855 752
Q 3116 1113 3116 1747
z
" transform="scale(0.015625)"/>
       <path id="DejaVuSans-63" d="M 3122 3366
L 3122 2828
Q 2878 2963 2633 3030
Q 2388 3097 2138 3097
Q 1578 3097 1268 2742
Q 959 2388 959 1747
Q 959 1106 1268 751
Q 1578 397 2138 397
Q 2388 397 2633 464
Q 2878 531 3122 666
L 3122 134
Q 2881 22 2623 -34
Q 2366 -91 2075 -91
Q 1284 -91 818 406
Q 353 903 353 1747
Q 353 2603 823 3093
Q 1294 3584 2113 3584
Q 2378 3584 2631 3529
Q 2884 3475 3122 3366
z
" transform="scale(0.015625)"/>
      </defs>
      <use xlink:href="#DejaVuSans-6d"/>
      <use xlink:href="#DejaVuSans-65" transform="translate(97.412109 0)"/>
      <use xlink:href="#DejaVuSans-64" transform="translate(158.935547 0)"/>
      <use xlink:href="#DejaVuSans-69" transform="translate(222.412109 0)"/>
      <use xlink:href="#DejaVuSans-61" transform="translate(250.195312 0)"/>
      <use xlink:href="#DejaVuSans-6e" transform="translate(311.474609 0)"/>
      <use xlink:href="#DejaVuSans-20" transform="translate(374.853516 0)"/>
      <use xlink:href="#DejaVuSans-77" transform="translate(406.640625 0)"/>
      <use xlink:href="#DejaVuSans-61" transform="translate(488.427734 0)"/>
      <use xlink:href="#DejaVuSans-6c" transform="translate(549.707031 0)"/>
      <use xlink:href="#DejaVuSans-6c" transform="translate(577.490234 0)"/>
      <use xlink:href="#DejaVuSans-20" transform="translate(605.273438 0)"/>
      <use xlink:href="#DejaVuSans-74" transform="translate(637.060547 0)"/>
      <use xlink:href="#DejaVuSans-69" transform="translate(676.269531 0)"/>
      <use xlink:href="#DejaVuSans-6d" transform="translate(704.052734 0)"/>
      <use xlink:href="#DejaVuSans-65" transform="translate(801.464844 0)"/>
      <use xlink:href="#DejaVuSans-20" transform="translate(862.988281 0)"/>
      <use xlink:href="#DejaVuSans-70" transform="translate(894.775391 0)"/>
      <use xlink:href="#DejaVuSans-65" transform="translate(958.251953 0)"/>
      <use xlink:href="#DejaVuSans-72" transform="translate(1019.775391 0)"/>
      <use xlink:href="#DejaVuSans-20" transform="translate(1060.888672 0)"/>
      <use xlink:href="#DejaVuSans-63" transform="translate(1092.675781 0)"/>
      <use xlink:href="#DejaVuSans-61" transform="translate(1147.65625 0)"/>
      <use xlink:href="#DejaVuSans-6c" transform="translate(1208.935547 0)"/>
      <use xlink:href="#DejaVuSans-6c" transform="translate(1236.71875 0)"/>
     </g>
    </g>
   </g>
   <g id="line2d_91">
    <path d="M 88.984091 218.267213
L 128.852273 178.40334
L 168.720455 148.947483
L 208.588636 126.461647
L 248.456818 108.652722
L 328.193182 78.663391
L 407.929545 57.831176
L 487.665909 37.950545
" clip-path="url(#p2a4e53d04e)" style="fill: none; stroke: #1f77b4; stroke-width: 2; stroke-linecap: square"/>
    <defs>
     <path id="m0fee27a2d2" d="M -3 3
L 3 3
L 3 -3
L -3 -3
z
" style="stroke: #1f77b4; stroke-linejoin: miter"/>
    </defs>
    <g clip-path="url(#p2a4e53d04e)">
     <use xlink:href="#m0fee27a2d2" x="88.984091" y="218.267213" style="fill: #1f77b4; stroke: #1f77b4; stroke-linejoin: miter"/>
     <use xlink:href="#m0fee27a2d2" x="128.852273" y="178.40334" style="fill: #1f77b4; stroke: #1f77b4; stroke-linejoin: miter"/>
     <use xlink:href="#m0fee27a2d2" x="168.720455" y="148.947483" style="fill: #1f77b4; stroke: #1f77b4; stroke-linejoin: miter"/>
     <use xlink:href="#m0fee27a2d2" x="208.588636" y="126.461647" style="fill: #1f77b4; stroke: #1f77b4; stroke-linejoin: miter"/>
     <use xlink:href="#m0fee27a2d2" x="248.456818" y="108.652722" style="fill: #1f77b4; stroke: #1f77b4; stroke-linejoin: miter"/>
     <use xlink:href="#m0fee27a2d2" x="328.193182" y="78.663391" style="fill: #1f77b4; stroke: #1f77b4; stroke-linejoin: miter"/>
     <use xlink:href="#m0fee27a2d2" x="407.929545" y="57.831176" style="fill: #1f77b4; stroke: #1f77b4; stroke-linejoin: miter"/>
     <use xlink:href="#m0fee27a2d2" x="487.665909" y="37.950545" style="fill: #1f77b4; stroke: #1f77b4; stroke-linejoin: miter"/>
    </g>
   </g>
   <g id="line2d_92">
    <path d="M 88.984091 219.935358
L 128.852273 182.015119
L 168.720455 154.538228
L 208.588636 134.219743
L 248.456818 118.733569
L 328.193182 89.264086
L 407.929545 69.845025
L 487.665909 52.43603
" clip-path="url(#p2a4e53d04e)" style="fill: none; stroke: #ff7f0e; stroke-width: 2; stroke-linecap: square"/>
    <defs>
     <path id="m2451d16133" d="M 0 3
C 0.795609 3 1.55874 2.683901 2.12132 2.12132
C 2.683901 1.55874 3 0.795609 3 0
C 3 -0.795609 2.683901 -1.55874 2.12132 -2.12132
C 1.55874 -2.683901 0.795609 -3 0 -3
C -0.795609 -3 -1.55874 -2.683901 -2.12132 -2.12132
C -2.683901 -1.55874 -3 -0.795609 -3 0
C -3 0.795609 -2.683901 1.55874 -2.12132 2.12132
C -1.55874 2.683901 -0.795609 3 0 3
z
" style="stroke: #ff7f0e"/>
    </defs>
    <g clip-path="url(#p2a4e53d04e)">
     <use xlink:href="#m2451d16133" x="88.984091" y="219.935358" style="fill: #ff7f0e; stroke: #ff7f0e"/>
     <use xlink:href="#m2451d16133" x="128.852273" y="182.015119" style="fill: #ff7f0e; stroke: #ff7f0e"/>
     <use xlink:href="#m2451d16133" x="168.720455" y="154.538228" style="fill: #ff7f0e; stroke: #ff7f0e"/>
     <use xlink:href="#m2451d16133" x="208.588636" y="134.219743" style="fill: #ff7f0e; stroke: #ff7f0e"/>
     <use xlink:href="#m2451d16133" x="248.456818" y="118.733569" style="fill: #ff7f0e; stroke: #ff7f0e"/>
     <use xlink:href="#m2451d16133" x="328.193182" y="89.264086" style="fill: #ff7f0e; stroke: #ff7f0e"/>
     <use xlink:href="#m2451d16133" x="407.929545" y="69.845025" style="fill: #ff7f0e; stroke: #ff7f0e"/>
     <use xlink:href="#m2451d16133" x="487.665909" y="52.43603" style="fill: #ff7f0e; stroke: #ff7f0e"/>
    </g>
   </g>
   <g id="line2d_93">
    <path d="M 88.984091 227.51231
L 128.852273 193.175627
L 168.720455 169.172138
L 208.588636 149.74583
L 248.456818 133.911003
L 328.193182 108.914001
L 407.929545 89.571607
L 487.665909 72.712968
" clip-path="url(#p2a4e53d04e)" style="fill: none; stroke: #2ca02c; stroke-width: 2; stroke-linecap: square"/>
    <defs>
     <path id="ma559d3018c" d="M 0 -3.5
L -3.5 3.5
L 3.5 3.5
z
" style="stroke: #2ca02c; stroke-linejoin: miter"/>
    </defs>
    <g clip-path="url(#p2a4e53d04e)">
     <use xlink:href="#ma559d3018c" x="88.984091" y="227.51231" style="fill: #2ca02c; stroke: #2ca02c; stroke-linejoin: miter"/>
     <use xlink:href="#ma559d3018c" x="128.852273" y="193.175627" style="fill: #2ca02c; stroke: #2ca02c; stroke-linejoin: miter"/>
     <use xlink:href="#ma559d3018c" x="168.720455" y="169.172138" style="fill: #2ca02c; stroke: #2ca02c; stroke-linejoin: miter"/>
     <use xlink:href="#ma559d3018c" x="208.588636" y="149.74583" style="fill: #2ca02c; stroke: #2ca02c; stroke-linejoin: miter"/>
     <use xlink:href="#ma559d3018c" x="248.456818" y="133.911003" style="fill: #2ca02c; stroke: #2ca02c; stroke-linejoin: miter"/>
     <use xlink:href="#ma559d3018c" x="328.193182" y="108.914001" style="fill: #2ca02c; stroke: #2ca02c; stroke-linejoin: miter"/>
     <use xlink:href="#ma559d3018c" x="407.929545" y="89.571607" style="fill: #2ca02c; stroke: #2ca02c; stroke-linejoin: miter"/>
     <use xlink:href="#ma559d3018c" x="487.665909" y="72.712968" style="fill: #2ca02c; stroke: #2ca02c; stroke-linejoin: miter"/>
    </g>
   </g>
   <g id="line2d_94">
    <path d="M 88.984091 255.601905
L 128.852273 215.543269
L 168.720455 188.309612
L 208.588636 167.170203
L 248.456818 149.569414
L 328.193182 120.649313
L 407.929545 97.61621
L 487.665909 79.387759
" clip-path="url(#p2a4e53d04e)" style="fill: none; stroke: #d62728; stroke-width: 2; stroke-linecap: square"/>
    <defs>
     <path id="mb8cbd0352e" d="M -1.166667 3.5
L 1.166667 3.5
L 1.166667 1.166667
L 3.5 1.166667
L 3.5 -1.166667
L 1.166667 -1.166667
L 1.166667 -3.5
L -1.166667 -3.5
L -1.166667 -1.166667
L -3.5 -1.166667
L -3.5 1.166667
L -1.166667 1.166667
z
" style="stroke: #d62728; stroke-linejoin: miter"/>
    </defs>
    <g clip-path="url(#p2a4e53d04e)">
     <use xlink:href="#mb8cbd0352e" x="88.984091" y="255.601905" style="fill: #d62728; stroke: #d62728; stroke-linejoin: miter"/>
     <use xlink:href="#mb8cbd0352e" x="128.852273" y="215.543269" style="fill: #d62728; stroke: #d62728; stroke-linejoin: miter"/>
     <use xlink:href="#mb8cbd0352e" x="168.720455" y="188.309612" style="fill: #d62728; stroke: #d62728; stroke-linejoin: miter"/>
     <use xlink:href="#mb8cbd0352e" x="208.588636" y="167.170203" style="fill: #d62728; stroke: #d62728; stroke-linejoin: miter"/>
     <use xlink:href="#mb8cbd0352e" x="248.456818" y="149.569414" style="fill: #d62728; stroke: #d62728; stroke-linejoin: miter"/>
     <use xlink:href="#mb8cbd0352e" x="328.193182" y="120.649313" style="fill: #d62728; stroke: #d62728; stroke-linejoin: miter"/>
     <use xlink:href="#mb8cbd0352e" x="407.929545" y="97.61621" style="fill: #d62728; stroke: #d62728; stroke-linejoin: miter"/>
     <use xlink:href="#mb8cbd0352e" x="487.665909" y="79.387759" style="fill: #d62728; stroke: #d62728; stroke-linejoin: miter"/>
    </g>
   </g>
   <g id="line2d_95">
    <path d="M 88.984091 257.03424
L 128.852273 221.883388
L 168.720455 197.398377
L 208.588636 177.0571
L 248.456818 161.264689
L 328.193182 135.335576
L 407.929545 114.186912
L 487.665909 98.937023
" clip-path="url(#p2a4e53d04e)" style="fill: none; stroke: #9467bd; stroke-width: 2; stroke-linecap: square"/>
    <defs>
     <path id="m43483cdca4" d="M -0 4.596194
L 4.596194 0
L 0 -4.596194
L -4.596194 -0
z
" style="stroke: #9467bd; stroke-linejoin: miter"/>
    </defs>
    <g clip-path="url(#p2a4e53d04e)">
     <use xlink:href="#m43483cdca4" x="88.984091" y="257.03424" style="fill: #9467bd; stroke: #9467bd; stroke-linejoin: miter"/>
     <use xlink:href="#m43483cdca4" x="128.852273" y="221.883388" style="fill: #9467bd; stroke: #9467bd; stroke-linejoin: miter"/>
     <use xlink:href="#m43483cdca4" x="168.720455" y="197.398377" style="fill: #9467bd; stroke: #9467bd; stroke-linejoin: miter"/>
     <use xlink:href="#m43483cdca4" x="208.588636" y="177.0571" style="fill: #9467bd; stroke: #9467bd; stroke-linejoin: miter"/>
     <use xlink:href="#m43483cdca4" x="248.456818" y="161.264689" style="fill: #9467bd; stroke: #9467bd; stroke-linejoin: miter"/>
     <use xlink:href="#m43483cdca4" x="328.193182" y="135.335576" style="fill: #9467bd; stroke: #9467bd; stroke-linejoin: miter"/>
     <use xlink:href="#m43483cdca4" x="407.929545" y="114.186912" style="fill: #9467bd; stroke: #9467bd; stroke-linejoin: miter"/>
     <use xlink:href="#m43483cdca4" x="487.665909" y="98.937023" style="fill: #9467bd; stroke: #9467bd; stroke-linejoin: miter"/>
    </g>
   </g>
   <g id="line2d_96">
    <path d="M 88.984091 288.161455
L 128.852273 250.644953
L 168.720455 224.581094
L 208.588636 203.41426
L 248.456818 188.951272
L 328.193182 162.763508
L 407.929545 144.059918
L 487.665909 129.035997
" clip-path="url(#p2a4e53d04e)" style="fill: none; stroke: #8c564b; stroke-width: 2; stroke-linecap: square"/>
    <defs>
     <path id="mffb8de44e4" d="M -0 3.5
L 3.5 -3.5
L -3.5 -3.5
z
" style="stroke: #8c564b; stroke-linejoin: miter"/>
    </defs>
    <g clip-path="url(#p2a4e53d04e)">
     <use xlink:href="#mffb8de44e4" x="88.984091" y="288.161455" style="fill: #8c564b; stroke: #8c564b; stroke-linejoin: miter"/>
     <use xlink:href="#mffb8de44e4" x="128.852273" y="250.644953" style="fill: #8c564b; stroke: #8c564b; stroke-linejoin: miter"/>
     <use xlink:href="#mffb8de44e4" x="168.720455" y="224.581094" style="fill: #8c564b; stroke: #8c564b; stroke-linejoin: miter"/>
     <use xlink:href="#mffb8de44e4" x="208.588636" y="203.41426" style="fill: #8c564b; stroke: #8c564b; stroke-linejoin: miter"/>
     <use xlink:href="#mffb8de44e4" x="248.456818" y="188.951272" style="fill: #8c564b; stroke: #8c564b; stroke-linejoin: miter"/>
     <use xlink:href="#mffb8de44e4" x="328.193182" y="162.763508" style="fill: #8c564b; stroke: #8c564b; stroke-linejoin: miter"/>
     <use xlink:href="#mffb8de44e4" x="407.929545" y="144.059918" style="fill: #8c564b; stroke: #8c564b; stroke-linejoin: miter"/>
     <use xlink:href="#mffb8de44e4" x="487.665909" y="129.035997" style="fill: #8c564b; stroke: #8c564b; stroke-linejoin: miter"/>
    </g>
   </g>
   <g id="patch_3">
    <path d="M 69.05 300.672
L 69.05 25.44
" style="fill: none; stroke: #000000; stroke-width: 0.8; stroke-linejoin: miter; stroke-linecap: square"/>
   </g>
   <g id="patch_4">
    <path d="M 507.6 300.672
L 507.6 25.44
" style="fill: none; stroke: #000000; stroke-width: 0.8; stroke-linejoin: miter; stroke-linecap: square"/>
   </g>
   <g id="patch_5">
    <path d="M 69.05 300.672
L 507.6 300.672
" style="fill: none; stroke: #000000; stroke-width: 0.8; stroke-linejoin: miter; stroke-linecap: square"/>
   </g>
   <g id="patch_6">
    <path d="M 69.05 25.44
L 507.6 25.44
" style="fill: none; stroke: #000000; stroke-width: 0.8; stroke-linejoin: miter; stroke-linecap: square"/>
   </g>
   <g id="text_16">
    <!-- HexLLL random-bounded comparator runtime -->
    <g transform="translate(150.533125 19.44) scale(0.12 -0.12)">
     <defs>
      <path id="DejaVuSans-48" d="M 628 4666
L 1259 4666
L 1259 2753
L 3553 2753
L 3553 4666
L 4184 4666
L 4184 0
L 3553 0
L 3553 2222
L 1259 2222
L 1259 0
L 628 0
L 628 4666
z
" transform="scale(0.015625)"/>
      <path id="DejaVuSans-78" d="M 3513 3500
L 2247 1797
L 3578 0
L 2900 0
L 1881 1375
L 863 0
L 184 0
L 1544 1831
L 300 3500
L 978 3500
L 1906 2253
L 2834 3500
L 3513 3500
z
" transform="scale(0.015625)"/>
      <path id="DejaVuSans-4c" d="M 628 4666
L 1259 4666
L 1259 531
L 3531 531
L 3531 0
L 628 0
L 628 4666
z
" transform="scale(0.015625)"/>
     </defs>
     <use xlink:href="#DejaVuSans-48"/>
     <use xlink:href="#DejaVuSans-65" transform="translate(75.195312 0)"/>
     <use xlink:href="#DejaVuSans-78" transform="translate(134.96875 0)"/>
     <use xlink:href="#DejaVuSans-4c" transform="translate(194.148438 0)"/>
     <use xlink:href="#DejaVuSans-4c" transform="translate(249.861328 0)"/>
     <use xlink:href="#DejaVuSans-4c" transform="translate(305.574219 0)"/>
     <use xlink:href="#DejaVuSans-20" transform="translate(361.287109 0)"/>
     <use xlink:href="#DejaVuSans-72" transform="translate(393.074219 0)"/>
     <use xlink:href="#DejaVuSans-61" transform="translate(434.1875 0)"/>
     <use xlink:href="#DejaVuSans-6e" transform="translate(495.466797 0)"/>
     <use xlink:href="#DejaVuSans-64" transform="translate(558.845703 0)"/>
     <use xlink:href="#DejaVuSans-6f" transform="translate(622.322266 0)"/>
     <use xlink:href="#DejaVuSans-6d" transform="translate(683.503906 0)"/>
     <use xlink:href="#DejaVuSans-2d" transform="translate(780.916016 0)"/>
     <use xlink:href="#DejaVuSans-62" transform="translate(817 0)"/>
     <use xlink:href="#DejaVuSans-6f" transform="translate(880.476562 0)"/>
     <use xlink:href="#DejaVuSans-75" transform="translate(941.658203 0)"/>
     <use xlink:href="#DejaVuSans-6e" transform="translate(1005.037109 0)"/>
     <use xlink:href="#DejaVuSans-64" transform="translate(1068.416016 0)"/>
     <use xlink:href="#DejaVuSans-65" transform="translate(1131.892578 0)"/>
     <use xlink:href="#DejaVuSans-64" transform="translate(1193.416016 0)"/>
     <use xlink:href="#DejaVuSans-20" transform="translate(1256.892578 0)"/>
     <use xlink:href="#DejaVuSans-63" transform="translate(1288.679688 0)"/>
     <use xlink:href="#DejaVuSans-6f" transform="translate(1343.660156 0)"/>
     <use xlink:href="#DejaVuSans-6d" transform="translate(1404.841797 0)"/>
     <use xlink:href="#DejaVuSans-70" transform="translate(1502.253906 0)"/>
     <use xlink:href="#DejaVuSans-61" transform="translate(1565.730469 0)"/>
     <use xlink:href="#DejaVuSans-72" transform="translate(1627.009766 0)"/>
     <use xlink:href="#DejaVuSans-61" transform="translate(1668.123047 0)"/>
     <use xlink:href="#DejaVuSans-74" transform="translate(1729.402344 0)"/>
     <use xlink:href="#DejaVuSans-6f" transform="translate(1768.611328 0)"/>
     <use xlink:href="#DejaVuSans-72" transform="translate(1829.792969 0)"/>
     <use xlink:href="#DejaVuSans-20" transform="translate(1870.90625 0)"/>
     <use xlink:href="#DejaVuSans-72" transform="translate(1902.693359 0)"/>
     <use xlink:href="#DejaVuSans-75" transform="translate(1943.806641 0)"/>
     <use xlink:href="#DejaVuSans-6e" transform="translate(2007.185547 0)"/>
     <use xlink:href="#DejaVuSans-74" transform="translate(2070.564453 0)"/>
     <use xlink:href="#DejaVuSans-69" transform="translate(2109.773438 0)"/>
     <use xlink:href="#DejaVuSans-6d" transform="translate(2137.556641 0)"/>
     <use xlink:href="#DejaVuSans-65" transform="translate(2234.96875 0)"/>
    </g>
   </g>
   <g id="legend_1">
    <g id="line2d_97">
     <path d="M 333.457813 212.701687
L 343.457813 212.701687
L 353.457813 212.701687
" style="fill: none; stroke: #1f77b4; stroke-width: 2; stroke-linecap: square"/>
     <g>
      <use xlink:href="#m0fee27a2d2" x="343.457813" y="212.701687" style="fill: #1f77b4; stroke: #1f77b4; stroke-linejoin: miter"/>
     </g>
    </g>
    <g id="text_17">
     <!-- Isabelle native -->
     <g transform="translate(361.457813 216.201687) scale(0.1 -0.1)">
      <defs>
       <path id="DejaVuSans-49" d="M 628 4666
L 1259 4666
L 1259 0
L 628 0
L 628 4666
z
" transform="scale(0.015625)"/>
       <path id="DejaVuSans-76" d="M 191 3500
L 800 3500
L 1894 563
L 2988 3500
L 3597 3500
L 2284 0
L 1503 0
L 191 3500
z
" transform="scale(0.015625)"/>
      </defs>
      <use xlink:href="#DejaVuSans-49"/>
      <use xlink:href="#DejaVuSans-73" transform="translate(29.492188 0)"/>
      <use xlink:href="#DejaVuSans-61" transform="translate(81.591797 0)"/>
      <use xlink:href="#DejaVuSans-62" transform="translate(142.871094 0)"/>
      <use xlink:href="#DejaVuSans-65" transform="translate(206.347656 0)"/>
      <use xlink:href="#DejaVuSans-6c" transform="translate(267.871094 0)"/>
      <use xlink:href="#DejaVuSans-6c" transform="translate(295.654297 0)"/>
      <use xlink:href="#DejaVuSans-65" transform="translate(323.4375 0)"/>
      <use xlink:href="#DejaVuSans-20" transform="translate(384.960938 0)"/>
      <use xlink:href="#DejaVuSans-6e" transform="translate(416.748047 0)"/>
      <use xlink:href="#DejaVuSans-61" transform="translate(480.126953 0)"/>
      <use xlink:href="#DejaVuSans-74" transform="translate(541.40625 0)"/>
      <use xlink:href="#DejaVuSans-69" transform="translate(580.615234 0)"/>
      <use xlink:href="#DejaVuSans-76" transform="translate(608.398438 0)"/>
      <use xlink:href="#DejaVuSans-65" transform="translate(667.578125 0)"/>
     </g>
    </g>
    <g id="line2d_98">
     <path d="M 333.457813 227.379812
L 343.457813 227.379812
L 353.457813 227.379812
" style="fill: none; stroke: #ff7f0e; stroke-width: 2; stroke-linecap: square"/>
     <g>
      <use xlink:href="#m2451d16133" x="343.457813" y="227.379812" style="fill: #ff7f0e; stroke: #ff7f0e"/>
     </g>
    </g>
    <g id="text_18">
     <!-- Lean native -->
     <g transform="translate(361.457813 230.879812) scale(0.1 -0.1)">
      <use xlink:href="#DejaVuSans-4c"/>
      <use xlink:href="#DejaVuSans-65" transform="translate(53.962891 0)"/>
      <use xlink:href="#DejaVuSans-61" transform="translate(115.486328 0)"/>
      <use xlink:href="#DejaVuSans-6e" transform="translate(176.765625 0)"/>
      <use xlink:href="#DejaVuSans-20" transform="translate(240.144531 0)"/>
      <use xlink:href="#DejaVuSans-6e" transform="translate(271.931641 0)"/>
      <use xlink:href="#DejaVuSans-61" transform="translate(335.310547 0)"/>
      <use xlink:href="#DejaVuSans-74" transform="translate(396.589844 0)"/>
      <use xlink:href="#DejaVuSans-69" transform="translate(435.798828 0)"/>
      <use xlink:href="#DejaVuSans-76" transform="translate(463.582031 0)"/>
      <use xlink:href="#DejaVuSans-65" transform="translate(522.761719 0)"/>
     </g>
    </g>
    <g id="line2d_99">
     <path d="M 333.457813 242.057937
L 343.457813 242.057937
L 353.457813 242.057937
" style="fill: none; stroke: #2ca02c; stroke-width: 2; stroke-linecap: square"/>
     <g>
      <use xlink:href="#ma559d3018c" x="343.457813" y="242.057937" style="fill: #2ca02c; stroke: #2ca02c; stroke-linejoin: miter"/>
     </g>
    </g>
    <g id="text_19">
     <!-- Isabelle certified (adjusted) -->
     <g transform="translate(361.457813 245.557937) scale(0.1 -0.1)">
      <defs>
       <path id="DejaVuSans-66" d="M 2375 4863
L 2375 4384
L 1825 4384
Q 1516 4384 1395 4259
Q 1275 4134 1275 3809
L 1275 3500
L 2222 3500
L 2222 3053
L 1275 3053
L 1275 0
L 697 0
L 697 3053
L 147 3053
L 147 3500
L 697 3500
L 697 3744
Q 697 4328 969 4595
Q 1241 4863 1831 4863
L 2375 4863
z
" transform="scale(0.015625)"/>
       <path id="DejaVuSans-28" d="M 1984 4856
Q 1566 4138 1362 3434
Q 1159 2731 1159 2009
Q 1159 1288 1364 580
Q 1569 -128 1984 -844
L 1484 -844
Q 1016 -109 783 600
Q 550 1309 550 2009
Q 550 2706 781 3412
Q 1013 4119 1484 4856
L 1984 4856
z
" transform="scale(0.015625)"/>
       <path id="DejaVuSans-6a" d="M 603 3500
L 1178 3500
L 1178 -63
Q 1178 -731 923 -1031
Q 669 -1331 103 -1331
L -116 -1331
L -116 -844
L 38 -844
Q 366 -844 484 -692
Q 603 -541 603 -63
L 603 3500
z
M 603 4863
L 1178 4863
L 1178 4134
L 603 4134
L 603 4863
z
" transform="scale(0.015625)"/>
       <path id="DejaVuSans-29" d="M 513 4856
L 1013 4856
Q 1481 4119 1714 3412
Q 1947 2706 1947 2009
Q 1947 1309 1714 600
Q 1481 -109 1013 -844
L 513 -844
Q 928 -128 1133 580
Q 1338 1288 1338 2009
Q 1338 2731 1133 3434
Q 928 4138 513 4856
z
" transform="scale(0.015625)"/>
      </defs>
      <use xlink:href="#DejaVuSans-49"/>
      <use xlink:href="#DejaVuSans-73" transform="translate(29.492188 0)"/>
      <use xlink:href="#DejaVuSans-61" transform="translate(81.591797 0)"/>
      <use xlink:href="#DejaVuSans-62" transform="translate(142.871094 0)"/>
      <use xlink:href="#DejaVuSans-65" transform="translate(206.347656 0)"/>
      <use xlink:href="#DejaVuSans-6c" transform="translate(267.871094 0)"/>
      <use xlink:href="#DejaVuSans-6c" transform="translate(295.654297 0)"/>
      <use xlink:href="#DejaVuSans-65" transform="translate(323.4375 0)"/>
      <use xlink:href="#DejaVuSans-20" transform="translate(384.960938 0)"/>
      <use xlink:href="#DejaVuSans-63" transform="translate(416.748047 0)"/>
      <use xlink:href="#DejaVuSans-65" transform="translate(471.728516 0)"/>
      <use xlink:href="#DejaVuSans-72" transform="translate(533.251953 0)"/>
      <use xlink:href="#DejaVuSans-74" transform="translate(574.365234 0)"/>
      <use xlink:href="#DejaVuSans-69" transform="translate(613.574219 0)"/>
      <use xlink:href="#DejaVuSans-66" transform="translate(641.357422 0)"/>
      <use xlink:href="#DejaVuSans-69" transform="translate(676.5625 0)"/>
      <use xlink:href="#DejaVuSans-65" transform="translate(704.345703 0)"/>
      <use xlink:href="#DejaVuSans-64" transform="translate(765.869141 0)"/>
      <use xlink:href="#DejaVuSans-20" transform="translate(829.345703 0)"/>
      <use xlink:href="#DejaVuSans-28" transform="translate(861.132812 0)"/>
      <use xlink:href="#DejaVuSans-61" transform="translate(900.146484 0)"/>
      <use xlink:href="#DejaVuSans-64" transform="translate(961.425781 0)"/>
      <use xlink:href="#DejaVuSans-6a" transform="translate(1024.902344 0)"/>
      <use xlink:href="#DejaVuSans-75" transform="translate(1052.685547 0)"/>
      <use xlink:href="#DejaVuSans-73" transform="translate(1116.064453 0)"/>
      <use xlink:href="#DejaVuSans-74" transform="translate(1168.164062 0)"/>
      <use xlink:href="#DejaVuSans-65" transform="translate(1207.373047 0)"/>
      <use xlink:href="#DejaVuSans-64" transform="translate(1268.896484 0)"/>
      <use xlink:href="#DejaVuSans-29" transform="translate(1332.373047 0)"/>
     </g>
    </g>
    <g id="line2d_100">
     <path d="M 333.457813 256.736063
L 343.457813 256.736063
L 353.457813 256.736063
" style="fill: none; stroke: #d62728; stroke-width: 2; stroke-linecap: square"/>
     <g>
      <use xlink:href="#mb8cbd0352e" x="343.457813" y="256.736063" style="fill: #d62728; stroke: #d62728; stroke-linejoin: miter"/>
     </g>
    </g>
    <g id="text_20">
     <!-- Lean steered -->
     <g transform="translate(361.457813 260.236063) scale(0.1 -0.1)">
      <use xlink:href="#DejaVuSans-4c"/>
      <use xlink:href="#DejaVuSans-65" transform="translate(53.962891 0)"/>
      <use xlink:href="#DejaVuSans-61" transform="translate(115.486328 0)"/>
      <use xlink:href="#DejaVuSans-6e" transform="translate(176.765625 0)"/>
      <use xlink:href="#DejaVuSans-20" transform="translate(240.144531 0)"/>
      <use xlink:href="#DejaVuSans-73" transform="translate(271.931641 0)"/>
      <use xlink:href="#DejaVuSans-74" transform="translate(324.03125 0)"/>
      <use xlink:href="#DejaVuSans-65" transform="translate(363.240234 0)"/>
      <use xlink:href="#DejaVuSans-65" transform="translate(424.763672 0)"/>
      <use xlink:href="#DejaVuSans-72" transform="translate(486.287109 0)"/>
      <use xlink:href="#DejaVuSans-65" transform="translate(525.150391 0)"/>
      <use xlink:href="#DejaVuSans-64" transform="translate(586.673828 0)"/>
     </g>
    </g>
    <g id="line2d_101">
     <path d="M 333.457813 271.414188
L 343.457813 271.414188
L 353.457813 271.414188
" style="fill: none; stroke: #9467bd; stroke-width: 2; stroke-linecap: square"/>
     <g>
      <use xlink:href="#m43483cdca4" x="343.457813" y="271.414188" style="fill: #9467bd; stroke: #9467bd; stroke-linejoin: miter"/>
     </g>
    </g>
    <g id="text_21">
     <!-- Lean certified -->
     <g transform="translate(361.457813 274.914188) scale(0.1 -0.1)">
      <use xlink:href="#DejaVuSans-4c"/>
      <use xlink:href="#DejaVuSans-65" transform="translate(53.962891 0)"/>
      <use xlink:href="#DejaVuSans-61" transform="translate(115.486328 0)"/>
      <use xlink:href="#DejaVuSans-6e" transform="translate(176.765625 0)"/>
      <use xlink:href="#DejaVuSans-20" transform="translate(240.144531 0)"/>
      <use xlink:href="#DejaVuSans-63" transform="translate(271.931641 0)"/>
      <use xlink:href="#DejaVuSans-65" transform="translate(326.912109 0)"/>
      <use xlink:href="#DejaVuSans-72" transform="translate(388.435547 0)"/>
      <use xlink:href="#DejaVuSans-74" transform="translate(429.548828 0)"/>
      <use xlink:href="#DejaVuSans-69" transform="translate(468.757812 0)"/>
      <use xlink:href="#DejaVuSans-66" transform="translate(496.541016 0)"/>
      <use xlink:href="#DejaVuSans-69" transform="translate(531.746094 0)"/>
      <use xlink:href="#DejaVuSans-65" transform="translate(559.529297 0)"/>
      <use xlink:href="#DejaVuSans-64" transform="translate(621.052734 0)"/>
     </g>
    </g>
    <g id="line2d_102">
     <path d="M 333.457813 286.092312
L 343.457813 286.092312
L 353.457813 286.092312
" style="fill: none; stroke: #8c564b; stroke-width: 2; stroke-linecap: square"/>
     <g>
      <use xlink:href="#mffb8de44e4" x="343.457813" y="286.092312" style="fill: #8c564b; stroke: #8c564b; stroke-linejoin: miter"/>
     </g>
    </g>
    <g id="text_22">
     <!-- fpLLL via fplll-ffi -->
     <g transform="translate(361.457813 289.592312) scale(0.1 -0.1)">
      <use xlink:href="#DejaVuSans-66"/>
      <use xlink:href="#DejaVuSans-70" transform="translate(35.205078 0)"/>
      <use xlink:href="#DejaVuSans-4c" transform="translate(98.681641 0)"/>
      <use xlink:href="#DejaVuSans-4c" transform="translate(154.394531 0)"/>
      <use xlink:href="#DejaVuSans-4c" transform="translate(210.107422 0)"/>
      <use xlink:href="#DejaVuSans-20" transform="translate(265.820312 0)"/>
      <use xlink:href="#DejaVuSans-76" transform="translate(297.607422 0)"/>
      <use xlink:href="#DejaVuSans-69" transform="translate(356.787109 0)"/>
      <use xlink:href="#DejaVuSans-61" transform="translate(384.570312 0)"/>
      <use xlink:href="#DejaVuSans-20" transform="translate(445.849609 0)"/>
      <use xlink:href="#DejaVuSans-66" transform="translate(477.636719 0)"/>
      <use xlink:href="#DejaVuSans-70" transform="translate(512.841797 0)"/>
      <use xlink:href="#DejaVuSans-6c" transform="translate(576.318359 0)"/>
      <use xlink:href="#DejaVuSans-6c" transform="translate(604.101562 0)"/>
      <use xlink:href="#DejaVuSans-6c" transform="translate(631.884766 0)"/>
      <use xlink:href="#DejaVuSans-2d" transform="translate(659.667969 0)"/>
      <use xlink:href="#DejaVuSans-66" transform="translate(695.751953 0)"/>
      <use xlink:href="#DejaVuSans-66" transform="translate(730.957031 0)"/>
      <use xlink:href="#DejaVuSans-69" transform="translate(766.162109 0)"/>
     </g>
    </g>
   </g>
  </g>
  <g id="text_23">
   <!-- Isabelle certified less its measured ~20 ms per-request process floor. -->
   <g style="fill: #666666" transform="translate(137.637891 340.688219) scale(0.07 -0.07)">
    <defs>
     <path id="DejaVuSans-Oblique-49" d="M 1081 4666
L 1716 4666
L 806 0
L 172 0
L 1081 4666
z
" transform="scale(0.015625)"/>
     <path id="DejaVuSans-Oblique-73" d="M 3200 3397
L 3091 2853
Q 2863 2978 2609 3040
Q 2356 3103 2088 3103
Q 1634 3103 1373 2948
Q 1113 2794 1113 2528
Q 1113 2219 1719 2053
Q 1766 2041 1788 2034
L 1972 1978
Q 2547 1819 2739 1644
Q 2931 1469 2931 1166
Q 2931 609 2489 259
Q 2047 -91 1331 -91
Q 1053 -91 747 -37
Q 441 16 72 128
L 184 722
Q 500 559 806 475
Q 1113 391 1394 391
Q 1816 391 2080 572
Q 2344 753 2344 1031
Q 2344 1331 1650 1516
L 1591 1531
L 1394 1581
Q 956 1697 753 1886
Q 550 2075 550 2369
Q 550 2928 970 3256
Q 1391 3584 2113 3584
Q 2397 3584 2667 3537
Q 2938 3491 3200 3397
z
" transform="scale(0.015625)"/>
     <path id="DejaVuSans-Oblique-61" d="M 3438 1997
L 3047 0
L 2472 0
L 2578 531
Q 2325 219 2001 64
Q 1678 -91 1281 -91
Q 834 -91 548 182
Q 263 456 263 884
Q 263 1497 752 1853
Q 1241 2209 2100 2209
L 2900 2209
L 2931 2363
Q 2938 2388 2941 2417
Q 2944 2447 2944 2509
Q 2944 2788 2717 2942
Q 2491 3097 2081 3097
Q 1800 3097 1504 3025
Q 1209 2953 897 2809
L 997 3341
Q 1322 3463 1633 3523
Q 1944 3584 2234 3584
Q 2853 3584 3176 3315
Q 3500 3047 3500 2534
Q 3500 2431 3484 2292
Q 3469 2153 3438 1997
z
M 2816 1759
L 2241 1759
Q 1534 1759 1195 1570
Q 856 1381 856 984
Q 856 709 1029 553
Q 1203 397 1509 397
Q 1978 397 2328 733
Q 2678 1069 2791 1631
L 2816 1759
z
" transform="scale(0.015625)"/>
     <path id="DejaVuSans-Oblique-62" d="M 3169 2138
Q 3169 2591 2961 2847
Q 2753 3103 2388 3103
Q 2122 3103 1889 2973
Q 1656 2844 1484 2597
Q 1303 2338 1198 1995
Q 1094 1653 1094 1313
Q 1094 881 1298 636
Q 1503 391 1863 391
Q 2134 391 2365 517
Q 2597 644 2772 891
Q 2950 1147 3059 1487
Q 3169 1828 3169 2138
z
M 1381 2969
Q 1594 3256 1914 3420
Q 2234 3584 2584 3584
Q 3122 3584 3439 3221
Q 3756 2859 3756 2241
Q 3756 1734 3570 1259
Q 3384 784 3041 416
Q 2816 172 2522 40
Q 2228 -91 1906 -91
Q 1566 -91 1316 65
Q 1066 222 909 531
L 806 0
L 231 0
L 1178 4863
L 1753 4863
L 1381 2969
z
" transform="scale(0.015625)"/>
     <path id="DejaVuSans-Oblique-65" d="M 3078 2063
Q 3088 2113 3092 2166
Q 3097 2219 3097 2272
Q 3097 2653 2873 2875
Q 2650 3097 2266 3097
Q 1838 3097 1509 2826
Q 1181 2556 1013 2059
L 3078 2063
z
M 3578 1613
L 903 1613
Q 884 1494 878 1425
Q 872 1356 872 1306
Q 872 872 1139 634
Q 1406 397 1894 397
Q 2269 397 2603 481
Q 2938 566 3225 728
L 3116 159
Q 2806 34 2476 -28
Q 2147 -91 1806 -91
Q 1078 -91 686 257
Q 294 606 294 1247
Q 294 1794 489 2264
Q 684 2734 1063 3103
Q 1306 3334 1642 3459
Q 1978 3584 2356 3584
Q 2950 3584 3301 3228
Q 3653 2872 3653 2272
Q 3653 2128 3634 1964
Q 3616 1800 3578 1613
z
" transform="scale(0.015625)"/>
     <path id="DejaVuSans-Oblique-6c" d="M 1172 4863
L 1747 4863
L 800 0
L 225 0
L 1172 4863
z
" transform="scale(0.015625)"/>
     <path id="DejaVuSans-Oblique-20" transform="scale(0.015625)"/>
     <path id="DejaVuSans-Oblique-63" d="M 3431 3366
L 3316 2797
Q 3109 2947 2876 3022
Q 2644 3097 2394 3097
Q 2119 3097 1870 3000
Q 1622 2903 1453 2725
Q 1184 2453 1037 2087
Q 891 1722 891 1331
Q 891 859 1127 628
Q 1363 397 1844 397
Q 2081 397 2348 469
Q 2616 541 2906 684
L 2797 116
Q 2547 13 2283 -39
Q 2019 -91 1741 -91
Q 1044 -91 669 257
Q 294 606 294 1253
Q 294 1797 489 2255
Q 684 2713 1069 3078
Q 1331 3328 1684 3456
Q 2038 3584 2456 3584
Q 2700 3584 2940 3529
Q 3181 3475 3431 3366
z
" transform="scale(0.015625)"/>
     <path id="DejaVuSans-Oblique-72" d="M 2853 2969
Q 2766 3016 2653 3041
Q 2541 3066 2413 3066
Q 1953 3066 1609 2717
Q 1266 2369 1153 1784
L 800 0
L 225 0
L 909 3500
L 1484 3500
L 1375 2956
Q 1603 3259 1920 3421
Q 2238 3584 2597 3584
Q 2691 3584 2781 3573
Q 2872 3563 2963 3538
L 2853 2969
z
" transform="scale(0.015625)"/>
     <path id="DejaVuSans-Oblique-74" d="M 2706 3500
L 2619 3053
L 1472 3053
L 1100 1153
Q 1081 1047 1072 975
Q 1063 903 1063 863
Q 1063 663 1183 572
Q 1303 481 1569 481
L 2150 481
L 2053 0
L 1503 0
Q 991 0 739 200
Q 488 400 488 806
Q 488 878 497 964
Q 506 1050 525 1153
L 897 3053
L 409 3053
L 500 3500
L 978 3500
L 1172 4494
L 1747 4494
L 1556 3500
L 2706 3500
z
" transform="scale(0.015625)"/>
     <path id="DejaVuSans-Oblique-69" d="M 1172 4863
L 1747 4863
L 1606 4134
L 1031 4134
L 1172 4863
z
M 909 3500
L 1484 3500
L 800 0
L 225 0
L 909 3500
z
" transform="scale(0.015625)"/>
     <path id="DejaVuSans-Oblique-66" d="M 3059 4863
L 2969 4384
L 2419 4384
Q 2106 4384 1964 4261
Q 1822 4138 1753 3809
L 1691 3500
L 2638 3500
L 2553 3053
L 1606 3053
L 1013 0
L 434 0
L 1031 3053
L 481 3053
L 563 3500
L 1113 3500
L 1159 3744
Q 1278 4363 1576 4613
Q 1875 4863 2516 4863
L 3059 4863
z
" transform="scale(0.015625)"/>
     <path id="DejaVuSans-Oblique-64" d="M 2675 525
Q 2444 222 2128 65
Q 1813 -91 1428 -91
Q 903 -91 598 267
Q 294 625 294 1247
Q 294 1766 478 2236
Q 663 2706 1013 3078
Q 1244 3325 1534 3454
Q 1825 3584 2144 3584
Q 2481 3584 2739 3421
Q 2997 3259 3138 2956
L 3513 4863
L 4091 4863
L 3144 0
L 2566 0
L 2675 525
z
M 891 1350
Q 891 897 1095 644
Q 1300 391 1663 391
Q 1931 391 2161 520
Q 2391 650 2566 903
Q 2750 1166 2856 1509
Q 2963 1853 2963 2188
Q 2963 2622 2758 2865
Q 2553 3109 2194 3109
Q 1922 3109 1687 2981
Q 1453 2853 1288 2613
Q 1106 2353 998 2009
Q 891 1666 891 1350
z
" transform="scale(0.015625)"/>
     <path id="DejaVuSans-Oblique-6d" d="M 5747 2113
L 5338 0
L 4763 0
L 5166 2094
Q 5191 2228 5203 2325
Q 5216 2422 5216 2491
Q 5216 2772 5059 2928
Q 4903 3084 4622 3084
Q 4203 3084 3875 2770
Q 3547 2456 3450 1953
L 3066 0
L 2491 0
L 2900 2094
Q 2925 2209 2937 2307
Q 2950 2406 2950 2484
Q 2950 2769 2794 2926
Q 2638 3084 2363 3084
Q 1938 3084 1609 2770
Q 1281 2456 1184 1953
L 800 0
L 225 0
L 909 3500
L 1484 3500
L 1375 2956
Q 1609 3263 1923 3423
Q 2238 3584 2597 3584
Q 2978 3584 3223 3384
Q 3469 3184 3519 2828
Q 3781 3197 4126 3390
Q 4472 3584 4856 3584
Q 5306 3584 5551 3325
Q 5797 3066 5797 2591
Q 5797 2488 5784 2364
Q 5772 2241 5747 2113
z
" transform="scale(0.015625)"/>
     <path id="DejaVuSans-Oblique-75" d="M 428 1388
L 838 3500
L 1416 3500
L 1006 1409
Q 975 1256 961 1147
Q 947 1038 947 966
Q 947 700 1109 554
Q 1272 409 1569 409
Q 2031 409 2368 721
Q 2706 1034 2809 1563
L 3194 3500
L 3769 3500
L 3091 0
L 2516 0
L 2631 550
Q 2388 244 2052 76
Q 1716 -91 1338 -91
Q 878 -91 622 161
Q 366 413 366 863
Q 366 956 381 1097
Q 397 1238 428 1388
z
" transform="scale(0.015625)"/>
     <path id="DejaVuSans-Oblique-7e" d="M 4684 2553
L 4684 1997
Q 4356 1750 4076 1644
Q 3797 1538 3494 1538
Q 3150 1538 2694 1722
Q 2659 1734 2644 1741
Q 2622 1750 2575 1766
Q 2091 1959 1797 1959
Q 1522 1959 1253 1839
Q 984 1719 678 1459
L 678 2016
Q 1006 2263 1286 2370
Q 1566 2478 1869 2478
Q 2213 2478 2672 2291
Q 2703 2278 2719 2272
Q 2744 2263 2788 2247
Q 3272 2053 3566 2053
Q 3834 2053 4098 2172
Q 4363 2291 4684 2553
z
" transform="scale(0.015625)"/>
     <path id="DejaVuSans-Oblique-32" d="M 2950 2253
L 934 525
L 3163 525
L 3053 0
L 25 0
L 128 531
L 2234 2338
Q 2656 2703 2832 2979
Q 3009 3256 3009 3547
Q 3009 3850 2796 4040
Q 2584 4231 2241 4231
Q 1944 4231 1581 4125
Q 1219 4019 806 3816
L 922 4441
Q 1309 4594 1662 4672
Q 2016 4750 2316 4750
Q 2928 4750 3301 4425
Q 3675 4100 3675 3572
Q 3675 3216 3497 2892
Q 3319 2569 2950 2253
z
" transform="scale(0.015625)"/>
     <path id="DejaVuSans-Oblique-30" d="M 2444 4750
Q 3078 4750 3414 4328
Q 3750 3906 3750 3116
Q 3750 2516 3592 1923
Q 3434 1331 3150 863
Q 2859 394 2467 151
Q 2075 -91 1600 -91
Q 988 -91 653 334
Q 319 759 319 1544
Q 319 2138 480 2733
Q 641 3328 928 3794
Q 1216 4263 1602 4506
Q 1988 4750 2444 4750
z
M 2406 4250
Q 2169 4250 1955 4123
Q 1741 3997 1569 3750
Q 1281 3338 1111 2720
Q 941 2103 941 1453
Q 941 938 1123 673
Q 1306 409 1663 409
Q 1913 409 2125 536
Q 2338 663 2509 909
Q 2794 1319 2961 1936
Q 3128 2553 3128 3206
Q 3128 3722 2945 3986
Q 2763 4250 2406 4250
z
" transform="scale(0.015625)"/>
     <path id="DejaVuSans-Oblique-70" d="M 3175 2156
Q 3175 2616 2975 2859
Q 2775 3103 2400 3103
Q 2144 3103 1911 2972
Q 1678 2841 1497 2591
Q 1319 2344 1212 1994
Q 1106 1644 1106 1300
Q 1106 863 1306 627
Q 1506 391 1875 391
Q 2147 391 2380 519
Q 2613 647 2778 891
Q 2956 1147 3065 1494
Q 3175 1841 3175 2156
z
M 1394 2969
Q 1625 3272 1939 3428
Q 2253 3584 2638 3584
Q 3175 3584 3472 3232
Q 3769 2881 3769 2247
Q 3769 1728 3584 1258
Q 3400 788 3053 416
Q 2822 169 2531 39
Q 2241 -91 1919 -91
Q 1547 -91 1294 64
Q 1041 219 916 525
L 556 -1331
L -19 -1331
L 922 3500
L 1497 3500
L 1394 2969
z
" transform="scale(0.015625)"/>
     <path id="DejaVuSans-Oblique-2d" d="M 391 2009
L 2075 2009
L 1978 1497
L 288 1497
L 391 2009
z
" transform="scale(0.015625)"/>
     <path id="DejaVuSans-Oblique-71" d="M 2669 525
Q 2438 222 2123 65
Q 1809 -91 1428 -91
Q 897 -91 595 267
Q 294 625 294 1253
Q 294 1759 480 2231
Q 666 2703 1013 3078
Q 1238 3322 1530 3453
Q 1822 3584 2144 3584
Q 2531 3584 2781 3431
Q 3031 3278 3144 2969
L 3244 3494
L 3822 3494
L 2888 -1319
L 2309 -1319
L 2669 525
z
M 891 1338
Q 891 875 1084 633
Q 1278 391 1644 391
Q 2188 391 2572 911
Q 2956 1431 2956 2175
Q 2956 2625 2757 2864
Q 2559 3103 2188 3103
Q 1916 3103 1684 2976
Q 1453 2850 1281 2606
Q 1100 2350 995 2006
Q 891 1663 891 1338
z
" transform="scale(0.015625)"/>
     <path id="DejaVuSans-Oblique-6f" d="M 1625 -91
Q 1009 -91 651 289
Q 294 669 294 1325
Q 294 1706 417 2101
Q 541 2497 738 2766
Q 1047 3184 1428 3384
Q 1809 3584 2291 3584
Q 2888 3584 3255 3212
Q 3622 2841 3622 2241
Q 3622 1825 3500 1412
Q 3378 1000 3181 728
Q 2875 309 2494 109
Q 2113 -91 1625 -91
z
M 891 1344
Q 891 869 1089 633
Q 1288 397 1691 397
Q 2269 397 2648 901
Q 3028 1406 3028 2181
Q 3028 2634 2825 2865
Q 2622 3097 2228 3097
Q 1903 3097 1650 2945
Q 1397 2794 1197 2484
Q 1050 2253 970 1956
Q 891 1659 891 1344
z
" transform="scale(0.015625)"/>
     <path id="DejaVuSans-Oblique-2e" d="M 525 794
L 1184 794
L 1031 0
L 372 0
L 525 794
z
" transform="scale(0.015625)"/>
    </defs>
    <use xlink:href="#DejaVuSans-Oblique-49"/>
    <use xlink:href="#DejaVuSans-Oblique-73" transform="translate(29.492188 0)"/>
    <use xlink:href="#DejaVuSans-Oblique-61" transform="translate(81.591797 0)"/>
    <use xlink:href="#DejaVuSans-Oblique-62" transform="translate(142.871094 0)"/>
    <use xlink:href="#DejaVuSans-Oblique-65" transform="translate(206.347656 0)"/>
    <use xlink:href="#DejaVuSans-Oblique-6c" transform="translate(267.871094 0)"/>
    <use xlink:href="#DejaVuSans-Oblique-6c" transform="translate(295.654297 0)"/>
    <use xlink:href="#DejaVuSans-Oblique-65" transform="translate(323.4375 0)"/>
    <use xlink:href="#DejaVuSans-Oblique-20" transform="translate(384.960938 0)"/>
    <use xlink:href="#DejaVuSans-Oblique-63" transform="translate(416.748047 0)"/>
    <use xlink:href="#DejaVuSans-Oblique-65" transform="translate(471.728516 0)"/>
    <use xlink:href="#DejaVuSans-Oblique-72" transform="translate(533.251953 0)"/>
    <use xlink:href="#DejaVuSans-Oblique-74" transform="translate(574.365234 0)"/>
    <use xlink:href="#DejaVuSans-Oblique-69" transform="translate(613.574219 0)"/>
    <use xlink:href="#DejaVuSans-Oblique-66" transform="translate(641.357422 0)"/>
    <use xlink:href="#DejaVuSans-Oblique-69" transform="translate(676.5625 0)"/>
    <use xlink:href="#DejaVuSans-Oblique-65" transform="translate(704.345703 0)"/>
    <use xlink:href="#DejaVuSans-Oblique-64" transform="translate(765.869141 0)"/>
    <use xlink:href="#DejaVuSans-Oblique-20" transform="translate(829.345703 0)"/>
    <use xlink:href="#DejaVuSans-Oblique-6c" transform="translate(861.132812 0)"/>
    <use xlink:href="#DejaVuSans-Oblique-65" transform="translate(888.916016 0)"/>
    <use xlink:href="#DejaVuSans-Oblique-73" transform="translate(950.439453 0)"/>
    <use xlink:href="#DejaVuSans-Oblique-73" transform="translate(1002.539062 0)"/>
    <use xlink:href="#DejaVuSans-Oblique-20" transform="translate(1054.638672 0)"/>
    <use xlink:href="#DejaVuSans-Oblique-69" transform="translate(1086.425781 0)"/>
    <use xlink:href="#DejaVuSans-Oblique-74" transform="translate(1114.208984 0)"/>
    <use xlink:href="#DejaVuSans-Oblique-73" transform="translate(1153.417969 0)"/>
    <use xlink:href="#DejaVuSans-Oblique-20" transform="translate(1205.517578 0)"/>
    <use xlink:href="#DejaVuSans-Oblique-6d" transform="translate(1237.304688 0)"/>
    <use xlink:href="#DejaVuSans-Oblique-65" transform="translate(1334.716797 0)"/>
    <use xlink:href="#DejaVuSans-Oblique-61" transform="translate(1396.240234 0)"/>
    <use xlink:href="#DejaVuSans-Oblique-73" transform="translate(1457.519531 0)"/>
    <use xlink:href="#DejaVuSans-Oblique-75" transform="translate(1509.619141 0)"/>
    <use xlink:href="#DejaVuSans-Oblique-72" transform="translate(1572.998047 0)"/>
    <use xlink:href="#DejaVuSans-Oblique-65" transform="translate(1614.111328 0)"/>
    <use xlink:href="#DejaVuSans-Oblique-64" transform="translate(1675.634766 0)"/>
    <use xlink:href="#DejaVuSans-Oblique-20" transform="translate(1739.111328 0)"/>
    <use xlink:href="#DejaVuSans-Oblique-7e" transform="translate(1770.898438 0)"/>
    <use xlink:href="#DejaVuSans-Oblique-32" transform="translate(1854.6875 0)"/>
    <use xlink:href="#DejaVuSans-Oblique-30" transform="translate(1918.310547 0)"/>
    <use xlink:href="#DejaVuSans-Oblique-20" transform="translate(1981.933594 0)"/>
    <use xlink:href="#DejaVuSans-Oblique-6d" transform="translate(2013.720703 0)"/>
    <use xlink:href="#DejaVuSans-Oblique-73" transform="translate(2111.132812 0)"/>
    <use xlink:href="#DejaVuSans-Oblique-20" transform="translate(2163.232422 0)"/>
    <use xlink:href="#DejaVuSans-Oblique-70" transform="translate(2195.019531 0)"/>
    <use xlink:href="#DejaVuSans-Oblique-65" transform="translate(2258.496094 0)"/>
    <use xlink:href="#DejaVuSans-Oblique-72" transform="translate(2320.019531 0)"/>
    <use xlink:href="#DejaVuSans-Oblique-2d" transform="translate(2355.632812 0)"/>
    <use xlink:href="#DejaVuSans-Oblique-72" transform="translate(2391.716797 0)"/>
    <use xlink:href="#DejaVuSans-Oblique-65" transform="translate(2432.830078 0)"/>
    <use xlink:href="#DejaVuSans-Oblique-71" transform="translate(2494.353516 0)"/>
    <use xlink:href="#DejaVuSans-Oblique-75" transform="translate(2557.830078 0)"/>
    <use xlink:href="#DejaVuSans-Oblique-65" transform="translate(2621.208984 0)"/>
    <use xlink:href="#DejaVuSans-Oblique-73" transform="translate(2682.732422 0)"/>
    <use xlink:href="#DejaVuSans-Oblique-74" transform="translate(2734.832031 0)"/>
    <use xlink:href="#DejaVuSans-Oblique-20" transform="translate(2774.041016 0)"/>
    <use xlink:href="#DejaVuSans-Oblique-70" transform="translate(2805.828125 0)"/>
    <use xlink:href="#DejaVuSans-Oblique-72" transform="translate(2869.304688 0)"/>
    <use xlink:href="#DejaVuSans-Oblique-6f" transform="translate(2910.417969 0)"/>
    <use xlink:href="#DejaVuSans-Oblique-63" transform="translate(2971.599609 0)"/>
    <use xlink:href="#DejaVuSans-Oblique-65" transform="translate(3026.580078 0)"/>
    <use xlink:href="#DejaVuSans-Oblique-73" transform="translate(3088.103516 0)"/>
    <use xlink:href="#DejaVuSans-Oblique-73" transform="translate(3140.203125 0)"/>
    <use xlink:href="#DejaVuSans-Oblique-20" transform="translate(3192.302734 0)"/>
    <use xlink:href="#DejaVuSans-Oblique-66" transform="translate(3224.089844 0)"/>
    <use xlink:href="#DejaVuSans-Oblique-6c" transform="translate(3259.294922 0)"/>
    <use xlink:href="#DejaVuSans-Oblique-6f" transform="translate(3287.078125 0)"/>
    <use xlink:href="#DejaVuSans-Oblique-6f" transform="translate(3348.259766 0)"/>
    <use xlink:href="#DejaVuSans-Oblique-72" transform="translate(3409.441406 0)"/>
    <use xlink:href="#DejaVuSans-Oblique-2e" transform="translate(3441.429688 0)"/>
   </g>
  </g>
 </g>
 <defs>
  <clipPath id="p2a4e53d04e">
   <rect x="69.05" y="25.44" width="438.55" height="275.232"/>
  </clipPath>
 </defs>
</svg>
